<svg width="1440" height="271" viewBox="0 0 1440 271" fill="none" xmlns="http://www.w3.org/2000/svg">
<path d="M173.5 21.0633C128.3 41.8633 43.3333 60.73 6.5 67.5633H-8C-8 401.897 -6.2 1072.96 1 1082.56C8.2 1092.16 32.3333 1095.56 43.5 1096.06C206.5 1136.56 256 999.563 389 989.063C522 978.563 543 1107.06 689 1082.56C835 1058.06 834 1001.06 988 1082.56C1142 1164.06 1252 1116.06 1339.5 1067.56C1409.5 1028.76 1443.67 1021.4 1452 1022.56V63.5633C1340.5 28.5633 1047 101.063 903 124.063C759 147.063 613.5 126.563 500.5 55.0633C387.5 -16.4367 230 -4.9367 173.5 21.0633Z" fill="#29A29D" stroke="#29A29D"/>
</svg>
