<svg width="54" height="54" viewBox="0 0 54 54" fill="none" xmlns="http://www.w3.org/2000/svg">
<path fill-rule="evenodd" clip-rule="evenodd" d="M26.9152 4.97705C14.6759 4.97705 4.76257 14.8904 4.76257 27.1297C4.76257 36.9322 11.1038 45.2118 19.9094 48.147C21.0171 48.3408 21.4324 47.6762 21.4324 47.0947C21.4324 46.5686 21.4047 44.8241 21.4047 42.9688C15.8389 43.9934 14.399 41.612 13.9559 40.3659C13.7067 39.729 12.6268 37.7629 11.6853 37.2368C10.9099 36.8214 9.8023 35.7969 11.6576 35.7692C13.4021 35.7415 14.6482 37.3753 15.0635 38.0398C17.0573 41.3904 20.2417 40.4489 21.5155 39.8674C21.7093 38.4275 22.2908 37.4583 22.9277 36.9045C17.9988 36.3507 12.8483 34.44 12.8483 25.9667C12.8483 23.5576 13.7067 21.5638 15.1189 20.0131C14.8974 19.4593 14.1221 17.1887 15.3405 14.1427C15.3405 14.1427 17.1957 13.5612 21.4324 16.4133C23.2046 15.9149 25.0876 15.6657 26.9706 15.6657C28.8536 15.6657 30.7365 15.9149 32.5087 16.4133C36.7454 13.5335 38.6007 14.1427 38.6007 14.1427C39.8191 17.1887 39.0438 19.4593 38.8222 20.0131C40.2345 21.5638 41.0929 23.5299 41.0929 25.9667C41.0929 34.4677 35.9147 36.3507 30.9857 36.9045C31.7888 37.5968 32.481 38.9259 32.481 41.0028C32.481 43.9657 32.4534 46.3471 32.4534 47.0947C32.4534 47.6762 32.8687 48.3685 33.9763 48.147C38.374 46.6624 42.1955 43.836 44.9027 40.0658C47.6099 36.2955 49.0666 31.7712 49.0678 27.1297C49.0678 14.8904 39.1545 4.97705 26.9152 4.97705Z" fill="white"/>
</svg>
