<svg width="79" height="125" viewBox="0 0 79 125" fill="none" xmlns="http://www.w3.org/2000/svg">
<path d="M41.055 3.10023C39.9089 3.08836 38.6274 3.1775 38.24 3.29469C37.8527 3.41188 37.4354 3.5156 37.3311 3.51546C37.2268 3.51532 36.9788 3.69878 36.7554 3.94732C36.4617 4.27218 36.3047 5.1011 36.0733 7.48699C35.911 9.19149 35.7612 10.7721 35.7289 10.9879C35.6872 11.2965 35.462 11.3572 34.6867 11.289C33.3022 11.1591 30.0161 11.577 29.2453 11.9786C28.8929 12.162 28.4535 12.5868 28.2962 12.9046C27.852 13.7878 27.6416 16.6869 27.9387 17.6662C28.2759 18.7642 29.0002 19.1297 30.8361 19.128L32.2755 19.1279L32.1495 20.6796C32.0833 21.5386 32.0678 22.3089 32.1192 22.4184C32.3087 22.8131 31.8201 26.8104 31.3738 28.5383C30.724 31.0382 29.8584 32.0665 27.3962 33.3084C26.3196 33.846 25.399 34.2846 25.3474 34.2794C25.1409 34.2584 21.2877 36.3607 19.563 37.427C17.8827 38.4666 14.9119 40.919 13.427 42.4999C13.1013 42.832 12.7756 43.164 12.6981 43.2083C12.4863 43.3433 10.5187 46.0851 9.66191 47.4376C8.60648 49.1038 7.13675 52.4906 6.85395 53.943C6.70843 54.6583 6.52357 55.4531 6.44474 55.7163C5.98747 57.1406 5.5428 63.7917 5.7976 65.4967C5.86513 65.9625 5.93313 66.8351 5.96117 67.4846C5.95824 68.1309 6.0132 68.7206 6.05645 68.8084C6.0997 68.8962 6.16003 69.33 6.18835 69.7709C6.27868 70.9378 6.47734 72.1678 7.27058 76.5872C7.35052 77.0333 7.43031 77.5838 7.4435 77.7624C7.45459 77.9617 7.55427 78.316 7.67264 78.5888C7.79102 78.8615 7.87633 79.1518 7.86586 79.255C7.83538 79.6587 8.01011 81.0219 8.21337 81.8977C8.3376 82.4214 8.64118 83.9541 8.91915 85.3278C9.69544 89.2968 10.3326 92.2714 10.5887 93.0379C10.7152 93.4366 11.1916 95.4249 11.6525 97.4638C12.3699 100.676 14.1016 105.92 15.1869 108.179C15.3764 108.574 15.7099 109.296 15.9138 109.755C16.935 112.028 17.1657 112.427 17.4178 112.306C17.5821 112.229 17.611 112.253 17.4962 112.356C17.3133 112.514 18.3455 114.267 19.2311 115.306C20.7589 117.109 23.213 118.828 24.9748 119.351C25.4104 119.478 26.7356 119.884 27.9195 120.244C31.602 121.368 36.8861 121.716 41.1916 121.12C44.1958 120.705 46.5256 119.637 48.8939 117.572C49.8088 116.778 52.242 114.073 52.2671 113.825C52.2744 113.753 52.6365 113.268 53.076 112.739C53.5156 112.21 54.0618 111.452 54.3008 111.048C54.5285 110.654 54.8493 110.165 54.992 109.992C56.0315 108.689 57.8098 105.344 59.7248 101.064C60.2768 99.8369 61.0638 98.1436 61.4841 97.2892C61.9034 96.4451 62.265 95.5535 62.287 95.3367C62.309 95.1199 62.4207 94.9435 62.5239 94.954C62.6788 94.9696 62.9243 94.4 63.6167 92.405C63.7048 92.1532 63.9679 91.5124 64.2217 90.9644C64.7882 89.6972 66.426 85.6808 66.7442 84.8056C66.8748 84.4434 67.0043 84.0915 67.0302 84.0419C67.0571 83.9821 67.3099 83.3402 67.6041 82.5982C67.8984 81.8562 68.3956 80.655 68.7208 79.9161C69.0357 79.1762 69.3724 78.3238 69.4565 78.009C69.5406 77.6942 69.8349 76.8479 70.0982 76.1027C70.3718 75.3586 70.7078 74.308 70.8582 73.7496C71.0087 73.1912 71.1903 72.5316 71.267 72.2891C71.5781 71.2776 72.4502 66.9958 72.482 66.3732C72.687 61.3667 72.6123 59.3253 72.173 57.3825C71.7316 55.4603 70.8134 52.5824 70.3972 51.8518C70.1933 51.4974 70.0244 51.1048 70.0349 51.0016C70.0351 50.8973 69.7302 50.3032 69.3521 49.7121C68.9739 49.1209 68.666 48.5578 68.6743 48.4752C68.6879 48.341 66.3308 45.1504 65.236 43.8086C64.0567 42.3749 63.3505 41.6254 63.1543 41.6055C63.0304 41.5929 62.7716 41.3685 62.5788 41.1091C62.2851 40.7143 60.9659 39.6314 57.8581 37.2617C54.6739 34.8217 54.4945 34.6366 54.0738 33.4362C53.4783 31.6966 53.5628 27.9817 54.2955 23.6336L54.638 21.5927L56.4757 21.779C58.5095 21.9851 58.7926 21.8678 59.3704 20.5913C59.7888 19.6533 60.0137 17.5379 59.8087 16.3698C59.6838 15.6479 59.4714 15.3761 58.6399 14.8329C57.5546 14.1179 55.2841 13.3663 53.7871 13.2146L52.9302 13.1277L53.171 10.6489C53.5323 6.87856 53.54 5.77375 53.2349 5.3882C52.4081 4.38656 45.8274 3.14588 41.055 3.10023ZM51.8396 10.2011L51.5519 13.0402L49.2055 12.625C46.1416 12.085 42.3837 11.7041 40.6469 11.7575C39.2457 11.7928 37.2603 11.6229 37.1119 11.441C37.0377 11.35 37.2202 9.24075 37.5187 6.80952L37.6325 5.89278L44.88 6.62737L52.1274 7.36196L51.8396 10.2011ZM48.0856 14.6184L51.1247 15.0933L50.7782 17.0712C50.5847 18.1572 50.3748 19.1997 50.3146 19.3814C50.2442 19.562 50.0675 20.3785 49.9116 21.1971C49.7545 22.026 49.4699 23.2905 49.2686 24.0419C49.0673 24.7933 48.7462 26.3149 48.5485 27.4421C48.2061 29.3787 48.0316 30.1746 47.949 30.1662C47.9284 30.1641 47.8516 30.4066 47.7583 30.7101C47.6753 31.0146 47.5748 31.286 47.5303 31.3128C47.3143 31.4891 40.7563 30.9495 39.0789 30.623L37.1465 30.2394L37.0629 29.4174C37.015 28.9641 36.9866 27.8034 36.9993 26.8556C37.0119 25.9077 37.0058 24.3217 36.9874 23.3708C36.8947 18.6261 36.8907 15.4758 36.9848 14.5467L37.0895 13.5143L41.0623 13.8335C43.2665 14.0048 46.4019 14.3539 48.0856 14.6184ZM35.3868 17.3468C35.3737 21.6948 35.3689 21.4336 35.5848 25.9926C35.8085 30.8861 35.83 30.9821 36.5068 31.4053C36.8308 31.6051 38.247 31.9363 39.6447 32.1406C41.0425 32.3449 42.2648 32.5313 42.3453 32.5603C42.7271 32.7033 47.2001 32.7187 47.8497 32.5863C48.6698 32.4191 48.6957 32.3696 49.39 29.7386C49.6422 28.7942 50.077 27.1799 50.3644 26.093C50.958 23.942 51.2509 22.5949 51.6276 20.4219C51.7712 19.6229 51.9709 18.5793 52.0778 18.1416C52.2522 17.45 52.5815 15.9502 52.6949 15.3463C52.8062 14.7631 58.0547 16.1816 58.2283 16.8355C58.2828 17.0183 58.2414 17.1184 58.1547 17.047C58.0681 16.9757 57.9145 17.565 57.8122 18.3682C57.71 19.1714 57.5499 19.927 57.4537 20.0529C57.3451 20.1983 56.6254 20.1984 55.5755 20.0606C53.7844 19.827 53.2214 20.0306 53.5259 20.8333C53.599 21.0389 53.4563 21.9319 53.2104 22.8144C52.1801 26.496 51.8818 30.2623 52.4088 33.0901C52.6794 34.5361 53.9666 36.3458 55.5964 37.554C56.0915 37.9171 57.1065 38.7083 57.8873 39.3403C58.6691 39.9619 59.3685 40.4708 59.4614 40.4802C59.5646 40.4907 59.6595 40.5838 59.6872 40.7222C59.7159 40.8502 60.1511 41.2907 60.642 41.6951C62.7007 43.4056 65.879 47.1384 66.8934 49.0665C67.0253 49.3093 67.3404 49.9045 67.5845 50.3777C68.222 51.6001 69.2962 54.3791 69.7155 55.9026C70.072 57.2217 70.6012 60.6442 70.5691 61.4754C70.54 62.3798 69.6873 70.6896 69.5896 71.1386C69.3529 72.1368 68.1118 75.9431 67.5284 77.4798C67.1875 78.3735 66.8403 79.3292 66.7491 79.612C66.5582 80.2601 65.4393 83.0671 64.6646 84.8452C64.3394 85.584 63.9964 86.4984 63.8988 86.8431C63.8003 87.1982 63.5018 87.9815 63.2202 88.5996C62.9385 89.2177 62.6888 89.8286 62.6432 89.97C62.5135 90.4263 60.616 94.844 60.4587 95.0575C60.3625 95.1834 60.259 95.3815 60.2248 95.5136C60.1916 95.6354 59.2853 97.6817 58.2083 100.076C55.3934 106.341 53.0752 110.278 50.0294 113.984C48.7811 115.495 46.0124 118.114 45.6821 118.081C45.6098 118.074 45.0436 118.308 44.3865 118.617C43.2686 119.15 41.8897 119.48 40.5494 119.532C40.2035 119.549 39.4445 119.629 38.862 119.715C38.2795 119.802 36.0484 119.691 33.901 119.473C26.3242 118.695 22.7246 117.266 20.2539 114.064C19.0459 112.502 17.3228 109.23 16.0714 106.141C15.3387 104.314 13.6403 98.8439 13.5393 97.9888C13.5219 97.8514 13.4562 97.5736 13.3852 97.3474C13.3236 97.1325 13.2477 96.7493 13.2284 96.5284C13.209 96.3074 13.1701 96.074 13.1433 96.0295C13.1165 95.9851 13.0847 95.888 13.0631 95.7919C13.0519 95.6969 12.9028 95.2125 12.7537 94.728C12.6047 94.2435 12.458 93.5299 12.4306 93.1829C12.4145 92.8266 12.2319 91.9529 12.0397 91.2763C11.8486 90.5894 11.6483 89.7868 11.626 89.4925C11.5934 89.1972 11.4097 88.3337 11.2187 87.5426C11.0174 86.7503 10.8481 85.9509 10.837 85.7516C10.8156 85.5513 10.7583 85.1908 10.6915 84.9233C10.3804 83.6715 10.2789 83.1292 10.0076 81.3808C9.85204 80.3429 9.58677 78.741 9.41761 77.8373C9.24951 76.9233 8.92585 74.9714 8.6935 73.4563C8.46115 71.9413 8.24003 70.5212 8.21353 70.2682C8.17774 70.0039 8.10346 69.1932 8.05282 68.458C8.00218 67.7227 7.89079 66.8666 7.80757 66.5557C7.21786 64.3473 8.37862 54.2331 9.41535 52.6485C9.53952 52.4525 9.74775 51.9417 9.87743 51.4855C10.0061 51.0396 10.4161 50.1842 10.8031 49.5559C11.1901 48.9276 11.507 48.2713 11.5258 48.0855C11.5457 47.8893 11.6646 47.7449 11.7885 47.7575C11.9124 47.77 12.0313 47.6256 12.0512 47.4295C12.0701 47.2436 12.4798 46.5968 12.9442 46.0285C13.4086 45.4602 14.0912 44.5907 14.4398 44.1358C15.2476 43.0599 17.9323 40.7558 20.0726 39.2935C22.09 37.9126 24.4234 36.5012 24.6195 36.5211C24.7021 36.5294 25.3272 36.2278 26.002 35.8477C26.687 35.4686 27.3328 35.169 27.467 35.1826C27.6012 35.1962 27.7025 35.123 27.713 35.0198C27.7234 34.9165 28.0025 34.7362 28.3258 34.6334C29.2328 34.329 30.6737 33.1817 31.3761 32.2203C32.7715 30.2862 33.6753 25.4861 33.4258 21.3618C33.357 20.291 33.3535 19.0911 33.4118 18.7216L33.5129 18.033L31.6505 17.7817L29.7881 17.5303L29.7158 16.8033C29.673 16.4026 29.6989 15.5291 29.7659 14.8684L29.8883 13.6605L31.0884 13.4484C31.7463 13.3377 32.9927 13.2868 33.8516 13.353L35.4148 13.4697L35.3868 17.3468Z" fill="white"/>
<path d="M40.7201 8.14597C40.2924 8.35294 40.3775 9.57145 40.8457 9.99439C41.0839 10.2167 41.3306 10.2521 41.6468 10.1173C42.3431 9.83326 42.4934 9.37914 42.1371 8.6755C41.823 8.07001 41.2801 7.86897 40.7201 8.14597Z" fill="white"/>
<path d="M48.0367 8.91886C47.86 9.01568 47.6479 9.35923 47.5834 9.68646C47.4826 10.1665 47.5712 10.3215 48.014 10.4811C48.6775 10.7256 49.057 10.3782 49.0612 9.51291C49.0621 8.8872 48.5988 8.62121 48.0367 8.91886Z" fill="white"/>
<path d="M44.9472 17.4817C44.5008 17.7702 44.3187 18.023 44.3958 18.2915C44.4585 18.4961 44.5169 18.8462 44.529 19.0351C44.537 19.2654 44.8238 19.4196 45.3297 19.4709C45.9181 19.5306 46.1898 19.4225 46.4382 19.0305C47.1729 17.8533 46.1067 16.744 44.9472 17.4817Z" fill="white"/>
<path d="M39.8546 22.9628C39.2148 23.4091 39.2396 24.1938 39.899 24.4797C40.5584 24.7656 40.9882 24.5379 41.1028 23.8194C41.2713 22.877 40.6173 22.4352 39.8546 22.9628Z" fill="white"/>
<path d="M43.817 26.3683C43.2091 26.9116 43.4305 28.1231 44.1245 28.0683C44.9754 28.0085 46.0023 26.8297 45.2796 26.7564C45.166 26.7449 45.097 26.6023 45.1437 26.4506C45.2837 25.9954 44.3101 25.928 43.817 26.3683Z" fill="white"/>
<path d="M33.2557 58.2255C32.8065 58.2321 30.9851 58.1935 29.1948 58.1581C23.9816 58.0365 16.9013 58.9459 14.8648 60.0015C14.5124 60.1848 14.155 60.3155 14.0517 60.305C13.9485 60.2946 13.501 60.5934 13.0441 60.9851C12.2337 61.6748 12.2202 61.7047 12.1621 63.4094C12.0998 65.2596 12.2556 69.1762 12.4712 70.8565C12.5478 71.4379 12.6305 72.166 12.6703 72.4933C12.8825 74.4131 15.0447 88.9945 15.2142 89.5853C15.391 90.2082 16.1123 93.5876 16.2249 94.3291C16.2423 94.4665 16.3595 94.8538 16.4633 95.1668C16.9837 96.7215 17.3845 98.118 17.3667 98.2935C17.3123 98.8304 19.9473 104.219 20.9522 105.624C21.9838 107.074 24.575 109.705 24.6127 109.333C24.6211 109.25 24.8501 109.357 25.1214 109.562C27.8558 111.706 36.429 113.253 40.0979 112.248C40.3014 112.196 40.5668 112.149 40.6928 112.141C40.8291 112.134 41.0842 112.087 41.2877 112.035C41.4912 111.982 42.0768 111.864 42.5963 111.781C44.3251 111.498 47.7767 109.344 48.9548 107.805C49.2672 107.399 49.7842 106.826 50.0809 106.574C51.1922 105.592 54.3069 100.588 54.7157 99.1275C54.781 98.8942 54.9001 98.6455 54.9787 98.5909C55.1254 98.4806 57.4164 93.2683 58.151 91.3715C58.3914 90.7492 58.7862 89.7358 59.0359 89.1249C59.2752 88.5129 60.1634 86.0267 60.9999 83.6396C61.8364 81.2524 62.7195 78.7136 62.9765 78.0304C63.6947 76.0901 64.7954 72.2279 65.1416 70.4586C65.7779 67.1646 65.7811 67.1336 65.273 66.3833C65.001 65.9802 64.6936 65.7196 64.5624 65.7793C64.4415 65.8401 64.3549 65.7687 64.3685 65.6345C64.3832 65.49 64.2388 65.371 64.0426 65.3512C63.8465 65.3313 63.701 65.2227 63.7136 65.0988C63.7345 64.8923 61.6379 63.762 60.7162 63.4912C60.453 63.4124 59.904 63.169 59.4882 62.9495C58.054 62.1784 53.9264 61.0195 50.3723 60.3776C49.3689 60.1925 47.9784 59.9159 47.2961 59.7529C45.9501 59.4496 34.6754 58.213 33.2557 58.2255ZM17.0882 64.305C19.9717 65.39 21.7759 65.9066 26.5736 67.0396C27.1341 67.1694 28.3046 67.4549 29.1696 67.6677C32.2631 68.4298 32.8474 68.5307 37.6304 69.0885C40.2795 69.3988 43.2281 69.6351 44.1894 69.6178C45.5999 69.5938 50.0017 69.4872 52.2197 69.42C52.4706 69.4141 52.9394 69.4199 53.2306 69.4286C53.5217 69.4372 53.717 69.3632 53.6645 69.264C53.6119 69.1648 53.9052 69.1528 54.3439 69.2494C55.3028 69.4613 59.004 69.0646 62.0622 68.4255C62.4454 68.3496 62.8378 68.2851 62.9411 68.2955C63.1062 68.3123 62.6623 69.8109 62.2741 70.5538C62.0919 70.9108 62.0597 71.0223 61.7199 72.6254C61.5983 73.2076 61.3744 73.8733 61.2378 74.0889C61.1013 74.3045 60.958 74.8949 60.9326 75.3513C60.9061 75.8179 60.8044 76.204 60.7115 76.1946C60.6186 76.1851 60.4352 76.6568 60.3012 77.2586C60.1672 77.8603 59.9741 78.6335 59.8621 79.0184C59.75 79.4034 59.585 80.0021 59.4937 80.3892C59.4033 80.7659 59.0756 81.8383 58.7636 82.7558C58.4619 83.6743 58.1549 84.6445 58.0988 84.8892C57.4517 87.7753 54.7516 94.6566 52.3827 99.5064C51.8163 100.669 51.3141 101.714 51.2706 101.834C51.2271 101.955 50.9175 102.539 50.5874 103.121C50.2572 103.703 49.9694 104.279 49.9589 104.382C49.9233 104.733 48.1797 106.809 47.0518 107.852C44.9118 109.826 42.2888 110.801 38.683 110.978C34.6155 111.181 27.7063 109.991 26.5452 108.893C26.4018 108.763 26.2687 108.739 26.2571 108.853C26.2456 108.966 26.1641 108.948 26.0848 108.804C25.9951 108.659 25.6372 108.383 25.2627 108.168C24.2165 107.582 22.5132 105.762 21.788 104.478C21.4161 103.825 21.0443 103.172 20.9268 102.993C20.529 102.39 19.7764 100.04 19.2446 97.7746C19.0475 96.9411 18.7773 95.902 18.6601 95.5146C18.5326 95.1262 18.2832 93.9849 18.0997 93.0172C17.9162 92.0495 17.6964 91.1302 17.6161 90.9969C17.375 90.597 15.9579 80.1902 15.8238 77.809C15.7856 77.0541 15.5783 74.5716 15.5079 73.9282C15.4681 73.6009 15.4183 72.9596 15.3952 72.4671C15.3721 71.9745 15.2457 71.5758 15.1218 71.5632C14.9669 71.5475 14.9753 71.4649 15.1511 71.2741C15.3258 71.0937 15.3524 70.5227 15.2175 69.4869C15.1133 68.6628 15.0443 67.8005 15.0631 67.6147C15.083 67.4185 14.982 66.4592 14.8326 65.4636C14.5113 63.2824 14.5072 63.3237 14.9891 63.5082C15.2203 63.5942 16.1635 63.961 17.0882 64.305Z" fill="white"/>
<path d="M48.8516 76.3066C48.5757 76.456 48.3937 76.7087 48.4626 76.8513C48.5409 77.0052 48.4851 77.0413 48.3397 76.9327C47.9333 76.6203 46.9251 78.4373 46.9993 79.3522C47.0887 80.4251 48.2799 81.4324 49.6324 81.5695C50.768 81.6846 52.052 81.2619 52.1033 80.7561C52.1211 80.5806 52.2503 80.4372 52.3845 80.4508C52.5601 80.4686 52.6329 80.0588 52.631 79.1512C52.6313 77.399 51.9314 76.4832 50.415 76.2148C49.7595 76.0962 49.1823 76.1315 48.8516 76.3066Z" fill="white"/>
<path d="M26.8442 76.9234C25.5409 77.1251 25.0554 77.2845 25.0313 77.5219C25.0177 77.6562 24.8119 77.9378 24.5596 78.1625C23.8494 78.7893 23.5053 82.0816 24.0243 83.1355C24.9778 85.047 27.9763 85.8203 29.8788 84.6468C30.8471 84.0461 31.9226 82.7992 31.9833 82.2004C32.0147 81.8907 32.1214 81.6616 32.2349 81.6731C32.4827 81.6983 32.3418 80.5158 31.9778 79.3733C31.4658 77.7361 29.0471 76.5939 26.8442 76.9234Z" fill="white"/>
<path d="M30.9042 89.9658C30.1853 90.1641 29.3815 91.3029 29.2728 92.2723C29.1234 93.5401 29.1911 93.9016 29.6786 94.5455C30.9556 96.2499 34.1781 95.5335 34.5444 93.4637C34.6974 92.5718 34.1282 91.1895 33.332 90.5039C32.7163 89.993 31.6562 89.7499 30.9042 89.9658Z" fill="white"/>
<path d="M43.0906 96.6141C42.3916 97.336 42.2432 98.6977 42.7831 99.5451C43.2952 100.358 43.9199 100.37 44.9091 99.5624C45.5458 99.0429 45.6525 98.8138 45.6267 98.0394C45.5742 96.3965 44.1039 95.5695 43.0906 96.6141Z" fill="white"/>
</svg>
