<svg width="91" height="118" viewBox="0 0 91 118" fill="none" xmlns="http://www.w3.org/2000/svg">
<path d="M56.9577 8.76478C55.2097 9.01259 52.9807 10.3267 52.0014 11.6899C51.5868 12.2757 51.0049 13.588 50.7064 14.6173C50.2288 16.2379 50.2336 16.7004 50.7044 18.1471C51.0135 19.0838 51.1975 19.8245 51.1383 19.8461C51.067 19.864 50.4111 19.942 49.6319 20.0354C47.9939 20.2243 45.7206 21.3801 44.9051 22.4636C44.5816 22.8793 44.0786 24.018 43.779 25.0074L43.2381 26.7932L40.1993 28.389C38.5402 29.2565 36.4972 30.5215 35.7094 31.1655C34.9059 31.818 34.152 32.3932 34.0178 32.4448C33.7374 32.5443 30.4739 35.5342 30.4081 35.7514C30.3752 35.86 29.6182 36.7504 27.3579 39.3855C26.3223 40.5868 22.0716 46.0967 21.8289 46.5502C21.6808 46.8215 21.4177 47.2555 21.2517 47.4555C21.0784 47.6797 20.2687 48.8308 19.4481 50.0182C18.0711 51.9986 17.3871 53.0825 15.9338 55.6194C13.0721 60.5884 12.2676 62.0705 11.7157 63.4578C11.3692 64.3408 10.9551 65.2297 10.7975 65.4455C10.5793 65.7746 8.10907 72.4956 7.83465 73.5322C6.81115 77.4771 6.29595 81.9185 6.62422 83.8358C6.71461 84.3638 6.74833 84.8614 6.69862 84.9386C6.49356 85.3112 7.23891 88.8961 7.56912 89.1542C7.7728 89.308 7.83499 89.5377 7.70668 89.6569C7.09543 90.1963 12.0886 98.1106 12.8922 97.893C13.0941 97.8355 13.2206 97.9397 13.1694 98.1086C13.0671 98.4465 16.6738 101.805 17.3858 102.02C17.6271 102.093 18.0008 102.338 18.2429 102.583C18.6163 102.959 20.9671 104.462 22.7662 105.481C25.5215 107.04 32.7229 109.576 35.3281 109.891C45.5531 111.144 51.7333 110.354 57.6132 107.077C59.8046 105.843 62.7647 103.42 63.2333 102.482C63.3766 102.183 63.8273 101.608 64.2148 101.199C64.6144 100.793 64.8677 100.435 64.7832 100.409C64.6988 100.383 64.9839 99.877 65.4419 99.278C65.8879 98.6754 66.5319 97.5927 66.8624 96.8497C67.7429 94.9428 70.6335 85.3983 70.9005 83.5163C71.0246 82.6713 71.2511 81.0538 71.4037 79.9408C71.865 76.7213 72.2294 68.9937 72.1336 64.5253C72.0043 58.1235 71.2097 48.4378 70.6731 46.7735C70.5114 46.2635 70.4005 45.7161 70.4297 45.6196C70.6271 44.968 68.4982 39.3834 67.044 36.7035L65.3086 33.517L65.897 31.5743C66.2222 30.5004 66.3661 29.5033 66.2301 29.3435C66.0904 29.1958 66.0801 28.9688 66.2084 28.8496C66.8742 28.2608 63.9619 23.9143 62.6226 23.5086C62.3692 23.4319 62.2043 23.237 62.2554 23.0681C62.3066 22.8992 62.4795 22.8067 62.6484 22.8578C62.8174 22.909 63.4645 22.5122 64.1276 21.9753C65.126 21.158 65.4002 20.6877 65.884 19.0032C66.8382 15.7223 65.9528 12.556 63.5284 10.5572C62.2752 9.51896 58.6502 8.52649 56.9577 8.76478ZM62.3097 12.4934C63.5084 13.5809 63.9149 15.5878 63.2955 17.4157C62.5481 19.6659 61.7033 20.4112 59.6667 20.6111C57.4949 20.8228 56.6141 20.556 55.0333 19.2078C53.7259 18.0874 53.016 16.2126 53.6169 15.4461C53.7902 15.2219 53.826 14.9298 53.6984 14.7858C53.1421 14.1431 55.6894 11.2129 57.0425 10.964C58.3438 10.7126 61.2869 11.5645 62.3097 12.4934ZM61.0572 25.0237C63.4794 26.9429 64.3353 28.4667 64.1535 30.5457C64.0812 31.3932 63.9636 32.0426 63.9033 32.0243C63.8429 32.0061 63.3781 31.4964 62.9075 30.9192C61.2366 28.9114 59.1194 27.6379 55.5587 26.52C51.881 25.3535 49.9432 25.2276 46.8354 25.9199C45.2658 26.2745 44.9942 26.258 45.2742 25.8554C45.4621 25.583 45.8126 24.991 46.0868 24.5208C46.7747 23.2932 48.3793 22.4751 50.7036 22.1515C54.8556 21.5779 57.7131 22.3643 61.0572 25.0237ZM59.831 30.7252C62.2149 32.9884 62.8231 33.6336 63.6112 34.7286C64.5485 36.0268 67.4371 41.5386 67.3421 41.8523C67.2946 42.0091 67.3601 42.3583 67.5079 42.6533C67.8034 43.2434 68.7287 46.8433 69.0489 48.6132C69.4821 51.0102 70.0629 56.5739 69.924 57.0325C69.8473 57.2858 69.8572 57.6445 69.9425 57.8416C70.185 58.3893 70.2497 63.1775 70.1033 69.2719C70.0862 69.8068 70.0659 71.0916 70.0438 72.1651C69.9167 77.8043 68.2812 86.7277 66.4703 91.6198C64.7895 96.1692 64.5709 96.6299 62.9819 98.8755C60.0268 103.065 59.4518 103.616 56.5631 105.02C55.5124 105.532 54.3951 106.089 54.0456 106.286C53.2874 106.702 48.7219 107.901 48.3358 107.784C48.1789 107.737 48.0049 107.789 47.8971 107.928C47.5809 108.32 40.3933 108.303 37.4708 107.905C24.7363 106.196 13.3633 98.3386 9.56062 88.6244C9.22118 87.7444 9.01888 87.064 9.12747 87.0969C9.224 87.1261 9.21918 86.6636 9.11086 86.0643C8.73466 84.0008 8.76004 80.3068 9.17139 78.1656C9.86918 74.5567 12.3634 66.9736 13.9979 63.4903C14.8529 61.6679 15.6628 59.9504 15.8098 59.6392C15.9603 59.316 16.2042 58.9024 16.3774 58.6782C16.547 58.4661 17.5936 56.7939 18.7044 54.9963C24.8981 44.8978 29.7786 38.6564 34.8353 34.3127C37.3443 32.1613 37.2306 32.2322 40.2563 30.593C43.883 28.622 44.6011 28.3389 47.4233 27.85C48.7728 27.6132 49.8773 27.3154 49.9139 27.1947C49.9504 27.0741 50.2283 27.0265 50.5215 27.1021C50.8148 27.1778 51.5621 27.2329 52.1925 27.2394C52.8108 27.2422 54.3362 27.5988 55.5644 28.0235C57.4816 28.6963 58.1434 29.1207 59.831 30.7252Z" fill="white"/>
<path d="M43.624 39.5696C43.0814 39.7083 43.0814 39.7083 43.3969 41.8852C43.7527 44.3641 43.2089 45.8987 40.7714 49.3364C39.6587 50.9227 38.436 53.0026 38.0712 53.946L37.405 55.6675L39.6583 59.8408C41.8311 63.8448 41.8838 64.0188 41.1815 64.2935C40.3486 64.6077 39.5335 66.4291 39.7432 67.5201C39.8219 67.9128 40.0834 68.5716 40.3252 68.9478C40.5717 69.3518 40.6178 69.7214 40.4244 69.7946C40.2273 69.8798 39.6796 70.1223 39.132 70.3648L38.1865 70.7898L36.429 69.1115C35.4702 68.1888 34.6284 67.3147 34.5768 67.1805C34.5252 67.0463 34.086 66.4522 33.5865 65.8399C33.0869 65.2275 32.7201 64.6554 32.753 64.5468C32.7859 64.4382 32.6974 64.1216 32.5459 63.8386C31.1089 61.0586 31.1724 59.8922 33.0071 55.5738C33.8079 53.6691 33.9059 53.1719 33.7663 51.5883C33.567 49.2886 33.8473 46.0143 34.317 45.1159C34.51 44.7396 34.613 44.1385 34.5402 43.8135C34.3968 43.2431 34.3606 43.2321 33.6217 43.6275C32.9614 43.9808 32.7758 44.3329 32.402 45.9586C32.1637 47.0061 32.0407 48.3257 32.1432 48.8573C32.4242 50.3651 31.6603 54.3228 30.8101 55.7383C29.67 57.6325 29.265 60.5792 29.8463 62.7048C30.4803 65.0045 33.3113 69.0103 35.6948 70.9704C36.8335 71.9081 36.8287 71.8803 36.2307 72.4632C35.7028 72.9883 35.7028 72.9883 34.3059 71.9462C32.2497 70.4277 28.1276 68.3362 25.9447 67.7146C23.6894 67.0711 22.9041 67.2284 21.0272 68.7282C20.2975 69.3107 19.5356 69.7386 19.3304 69.6765C18.884 69.5413 16.3698 70.9271 15.6057 71.71C14.7024 72.6483 13.637 77.3842 14.2348 77.8023C14.7351 78.1514 15.4692 77.7283 15.7031 76.956C15.831 76.5337 16.0999 75.2978 16.3081 74.1753L16.6793 72.1669L18.7084 71.5563C19.9387 71.1912 21.0827 70.5892 21.6215 70.0279C22.1023 69.528 22.7618 69.0032 23.0773 68.8748C23.8184 68.5592 25.5929 69.2678 27.034 70.4683C28.0956 71.3563 30.4578 72.6908 33.6225 74.2026L34.7864 74.7527L34.312 76.058L33.8377 77.3634L29.7566 78.0507C27.4938 78.4324 25.4193 78.8448 25.1001 78.9853C24.1269 79.415 22.8993 80.5977 22.0976 81.8962C21.2924 83.2067 21.2412 83.3756 20.5873 86.8397C20.226 88.7721 20.0863 89.0592 19.1461 89.8151C18.0617 90.6986 17.545 92.057 17.6626 93.7129C17.7784 95.1575 18.4759 94.855 19.1254 93.1021C19.4525 92.2395 20.0202 91.2785 20.4099 90.9487C21.2013 90.2926 21.9144 88.2428 22.5098 84.9718C23.0355 82.0616 23.8489 81.3332 26.6774 81.215C29.2511 81.1118 31.1863 80.8549 32.4988 80.4356C33.0125 80.2619 33.5478 80.1474 33.6443 80.1766C33.7529 80.2095 33.9384 80.8584 34.0837 81.6401C34.461 83.7435 36.1328 86.7923 37.0619 87.0737C37.9789 87.3514 41.1051 85.5977 42.3988 84.0662C43.3413 82.9553 43.5007 82.9509 44.3722 84.0316C45.1942 85.0577 48.1789 87.5556 50.1788 88.9122C50.4512 89.1001 50.7259 89.8024 50.8013 90.5102C50.9156 91.6119 50.7815 92.0982 49.7394 94.3645C48.5395 96.9782 48.1157 99.2474 48.7045 99.9131C48.8405 100.073 48.7382 100.845 48.4499 101.667C47.844 103.407 48.1326 104.324 49.0703 103.62C50.0589 102.879 50.6563 100.689 50.2506 99.288C50.0267 98.5484 50.2116 97.59 51.2019 94.32C52.3457 90.5433 52.4035 90.1787 52.0676 88.8519C51.8667 88.0797 51.5514 87.207 51.3602 86.9251C50.8898 86.2163 45.5413 81.1714 45.1311 81.0472C44.9622 80.996 45.0184 80.2885 45.2584 79.4523C45.4949 78.6281 45.8081 77.9853 45.9529 78.0291C46.9906 78.3434 52.4682 78.8299 54.5091 78.7894C57.9691 78.7175 58.5033 78.9979 59.194 81.3279C59.5243 82.4555 60.243 83.7797 60.9148 84.5628C62.138 85.9607 62.1494 86.2276 61.0123 88.373C60.6639 89.0447 60.4652 89.788 60.5427 90.1409C60.6514 90.6085 60.6053 90.6736 60.3585 90.4012C60.1321 90.1482 60.0462 90.2144 60.0898 90.636C60.1228 90.9621 60.1097 91.3534 60.0621 91.5102C60.0146 91.6671 60.2787 91.8393 60.6553 91.9006C61.196 91.9854 61.4574 91.7747 61.9114 90.8847C62.8764 89.0034 63.4143 86.9664 63.2225 85.9467C63.0308 84.927 61.6713 82.4997 61.2128 82.3609C61.0559 82.3134 60.692 81.5577 60.3997 80.6524C59.6798 78.4189 59.109 77.8245 57.024 77.1403C54.8546 76.4306 49.9123 75.8296 47.5643 76.0142C45.6619 76.1626 45.6619 76.1626 45.6501 75.1579C45.6504 74.5915 45.8017 74.4398 46.3922 74.4473C48.9969 74.459 55.168 72.0467 56.718 70.4084C58.1131 68.934 59.0524 67.1371 59.2522 65.5642C59.579 62.9626 60.868 59.5328 62.0079 58.205C63.4493 56.5339 64.4572 53.4668 63.8278 52.6307C63.2357 51.8455 62.9766 52.1358 61.9031 54.8537C61.4145 56.0757 60.4111 57.8664 59.638 58.8968C58.4528 60.4612 58.159 61.0835 57.7582 62.8854C57.4991 64.0452 57.2357 65.4804 57.1908 66.0201C56.9448 68.6592 52.6495 71.4025 47.0833 72.4699L45.0402 72.8655L44.4653 71.98C44.1526 71.4901 43.8279 70.9966 43.7328 70.8756C43.6377 70.7546 44.0058 70.3655 44.5743 70.0107C45.1307 69.6523 45.6378 69.2394 45.7047 69.0621C46.3315 67.6448 46.4353 67.2152 46.3149 66.6123C46.2362 66.2196 46.0321 65.7626 45.8551 65.5641C45.6204 65.2954 46.674 64.6002 49.7443 62.9876C53.9465 60.7694 53.9465 60.7694 54.2797 59.4081C54.6766 57.7499 54.7933 56.0596 54.7492 52.1601C54.7187 49.0421 55.1927 47.4336 56.5427 46.0641C56.826 45.781 56.9985 45.3854 56.9363 45.1558C56.8741 44.9262 56.9528 44.8841 57.1213 45.0669C57.2779 45.246 57.4384 45.2815 57.5027 45.1561C57.555 45.027 57.7176 44.7074 57.8499 44.4445C58.2286 43.7161 57.7693 43.4058 56.9434 43.8275C56.149 44.2323 54.0518 46.8509 53.3851 48.2693C53.1252 48.8229 53.0055 50.2621 53.0599 52.0833C53.125 53.9999 52.9611 55.7154 52.6 57.0815L52.0475 59.1668L49.7516 60.6582C48.4742 61.4832 47.4301 62.234 47.4009 62.3306C47.3716 62.4271 46.5406 62.9526 45.5466 63.4947L43.7508 64.4657L43.1239 63.1429C42.7768 62.4187 41.9103 60.3647 41.1915 58.6058L39.8861 55.3914L40.5929 53.4055C41.0223 52.2051 41.9603 50.5 42.9542 49.0885C44.7699 46.5296 45.0099 45.6933 44.8186 42.6714C44.7539 40.6232 44.2656 39.4083 43.624 39.5696Z" fill="white"/>
</svg>
