<svg width="129" height="130" viewBox="0 0 129 130" fill="none" xmlns="http://www.w3.org/2000/svg">
<g clip-path="url(#clip0_1_282)">
<path d="M56.3432 0.719237C56.4315 1.1605 56.6332 2.08086 56.7845 2.77428C57.7301 6.97261 56.6584 10.9062 53.4687 14.9406C50.5689 18.6094 48.6526 22.1774 48.2365 24.6989C47.6062 28.4938 48.3626 33.1586 50.1781 36.6257C50.4177 37.0796 50.6194 37.5587 50.6194 37.6973C50.6194 37.9117 53.3678 42.11 53.9856 42.8539C54.1369 43.043 54.2756 43.2699 54.2756 43.3582C54.2756 43.4464 54.6286 43.8499 55.0825 44.2785C55.5237 44.6946 56.6332 45.9427 57.5283 47.0018C58.4235 48.0734 59.243 49.0316 59.3186 49.1072C59.3943 49.1829 59.8355 49.788 60.2642 50.431L61.0711 51.6161L60.2012 52.9399C59.7221 53.6586 59.3312 54.5285 59.3186 54.8563C59.306 56.1549 58.9278 56.2305 57.1879 55.3102C54.5656 53.9233 53.0905 53.066 52.6114 52.6626C52.3592 52.4482 51.7162 52.1078 51.1867 51.9061C50.6572 51.7044 48.6148 50.7714 46.6984 49.8637C44.7694 48.9433 42.1092 47.8213 40.798 47.3674C39.4869 46.9135 38.2891 46.4596 38.1378 46.3588C37.9739 46.2579 37.6714 46.1697 37.4318 46.1444C37.1923 46.1192 35.9819 45.7788 34.759 45.3754C32.5905 44.682 30.2077 43.9885 28.1778 43.4842C27.6231 43.3456 26.438 43.043 25.505 42.8034C21.4202 41.7444 17.4488 41.3662 10.6028 41.3788C5.20677 41.4292 3.01305 41.6057 1.97923 42.11C0.16373 43.0051 -0.491865 45.7032 0.390667 48.7038C0.655427 49.6241 1.09669 51.3514 1.34885 52.4987C2.9248 59.6346 6.2532 65.7241 10.3507 68.939C12.4688 70.5906 12.6579 70.9058 12.6957 72.7969C12.7335 74.8015 12.7839 75.0285 13.4017 76.4279C13.6539 76.9953 13.8682 77.5374 13.8682 77.6004C13.8682 78.2434 21.0671 84.2068 21.8362 84.2068C22.0253 84.2068 22.3657 84.4464 22.6431 84.7742C22.9205 85.0893 23.3365 85.3541 23.6265 85.3793C24.3451 85.455 24.6351 85.518 25.2024 85.7702C26.2489 86.224 29.9051 85.6945 32.0988 84.7742C33.2461 84.2951 34.343 83.8664 34.4942 83.8412C34.6455 83.816 35.2885 83.5512 35.8937 83.2738C38.037 82.3031 39.8399 81.471 41.2393 80.8028C42.0084 80.4371 43.3196 79.9202 44.1769 79.6555C48.3248 78.3443 49.3334 78.0543 49.4217 78.1425C49.4847 78.2056 48.8795 78.6721 48.0474 79.2016C47.2153 79.7311 46.4841 80.2606 46.3832 80.3867C46.2824 80.5254 46.1563 80.5884 46.068 80.538C45.9924 80.4876 44.5047 81.3953 42.7901 82.5426C41.0754 83.6899 39.449 84.7615 39.2095 84.9128C36.6628 86.451 31.5567 90.9771 31.5567 91.6957C31.5567 91.8722 31.3676 92.1622 31.1532 92.3387C30.9389 92.5152 30.6615 93.1456 30.5607 93.7003C30.4598 94.2803 30.132 95.2385 29.842 95.8562C29.5395 96.474 29.3125 97.1296 29.3125 97.3313C29.3125 97.5204 29.199 97.6969 29.073 97.6969C28.6947 97.6969 27.3205 100.988 26.9171 102.853C26.6271 104.19 25.8706 106.623 25.505 107.43C25.2781 107.909 25.1016 108.426 25.1016 108.565C25.1016 108.703 24.799 109.435 24.4208 110.204C24.0425 110.985 23.7021 111.78 23.6391 112.019C23.5887 112.259 23.4752 112.511 23.3869 112.574C23.1474 112.776 20.4115 118.487 19.7181 120.227C18.7726 122.622 18.5582 124.589 18.9743 127.022C19.2769 128.737 20.0333 129.506 21.2941 129.38C22.0631 129.304 22.2018 129.14 22.6305 127.741C22.8952 126.884 23.2483 125.661 23.4122 125.018C23.7652 123.631 25.1646 121.677 26.4254 120.819C26.9297 120.479 27.8752 120.126 28.5435 120.025C32.3383 119.458 35.6668 118.361 37.8479 116.961C41.4663 114.642 46.3958 107.531 49.5225 100.092C50.9598 96.701 51.5019 95.3015 52.044 93.6247C52.397 92.553 52.7753 91.4184 52.9013 91.1158C53.0148 90.8006 53.5822 89.1238 54.1495 87.3587C54.7168 85.5937 55.6372 83.2612 56.2045 82.1518L57.2384 80.1472L57.4149 85.2028C57.6166 90.7628 57.5914 90.6115 58.6504 93.3599C59.0665 94.4316 59.4195 95.4654 59.4321 95.6545C59.4447 95.8436 59.5456 96.0075 59.659 96.0075C59.7725 96.0075 59.9364 96.3101 60.0247 96.6883C60.1129 97.0666 60.6046 97.9869 61.1089 98.7308C61.6132 99.4746 62.2184 100.445 62.4453 100.887C62.6722 101.315 63.2018 101.857 63.5926 102.059C64.2356 102.4 64.4121 102.387 64.9416 102.009C65.7359 101.454 67.7405 98.3021 68.5978 96.2975C68.9634 95.4402 69.4173 94.3685 69.619 93.9147C70.7537 91.3427 70.9176 90.2459 70.9933 85.2785C71.0185 83.0091 71.1193 81.0549 71.2076 80.9667C71.6489 80.5254 73.4391 84.2825 74.246 87.3587C74.4478 88.1404 74.7125 88.6195 74.8764 88.5186C75.0403 88.4178 75.0781 88.4808 74.9521 88.6699C74.4478 89.4894 79.3521 101.744 82.1384 106.648C85.1264 111.893 85.0634 111.805 88.3287 115.032C90.8376 117.516 94.4812 119.155 99.083 119.874C99.8647 120 100.848 120.252 101.327 120.466C102.903 121.147 104.996 123.896 105.248 125.635C105.45 127.022 105.954 128.623 106.307 129.09C106.748 129.657 108.047 129.493 108.703 128.8C109.106 128.371 109.371 127.615 109.51 126.493C109.623 125.585 109.711 124.753 109.686 124.665C109.661 124.576 109.585 123.996 109.51 123.353C109.295 121.588 108.677 119.987 106.345 115.171C104.315 110.973 102.676 107.127 102.424 105.942C102.386 105.753 102.172 105.009 101.945 104.253C101.718 103.509 101.378 102.362 101.163 101.643C100.962 100.95 100.621 100.029 100.419 99.6133C100.205 99.1847 100.054 98.7686 100.066 98.6677C100.079 98.5669 99.9656 98.403 99.8017 98.3021C99.6378 98.2013 99.0452 96.9279 98.4905 95.4528C96.9019 91.2797 96.0698 90.1702 92.2875 87.0813C90.7368 85.8206 80.6885 79.2772 80.4111 79.3529C80.3229 79.3781 79.806 79.0251 79.2765 78.5712C78.7469 78.1173 78.5578 77.8652 78.8604 78.0039C79.1756 78.1552 79.4782 78.2686 79.5538 78.2686C80.4742 78.2308 85.3029 79.9328 88.2783 81.3323C91.1528 82.6813 94.3552 84.0555 97.2423 85.1524C99.5999 86.0475 103.534 86.0727 105.084 85.1902C105.614 84.8876 106.395 84.459 106.824 84.2194C108.236 83.463 113.14 79.3781 114.061 78.193C115.271 76.6296 115.813 74.9528 115.813 72.8474C115.813 70.8806 115.889 70.7419 118.41 68.649C122.546 65.2071 125.849 58.6638 127.45 50.8093C127.501 50.5697 127.753 49.6368 128.017 48.729C128.547 46.9387 128.484 44.8206 127.866 43.459C127.059 41.6814 125.773 41.4292 117.641 41.4292C109.27 41.4292 105.904 41.8957 97.5827 44.2533C93.0314 45.5393 85.1138 48.1995 83.5126 48.9812C82.8192 49.3216 80.8776 50.2671 79.163 51.1118C77.4484 51.9439 75.4438 52.9904 74.6621 53.4569C72.1532 54.9319 69.1652 56.4196 69.3543 56.1297C69.5686 55.7767 68.7617 53.8351 67.9044 52.65L67.2614 51.7674L68.1944 50.3932C68.6987 49.6494 69.6316 48.4895 70.2242 47.8717C74.3595 43.5095 78.104 37.8486 79.4025 33.9655C80.6759 30.1706 80.6885 25.1276 79.4278 22.3035C79.0621 21.4714 78.7343 20.6771 78.7091 20.5636C78.5957 20.0089 77.0827 17.6513 75.7968 16.0123C72.1153 11.3601 71.3589 9.58238 71.3841 5.6362C71.3967 3.79549 71.548 2.58516 71.8884 1.72785C72.2918 0.706629 72.3045 0.454477 71.9893 0.265363C70.4259 -0.692815 69.4804 4.42587 70.3377 9.12851C70.6907 11.0323 72.4053 14.4615 73.8426 16.1383C75.1916 17.7143 75.1916 17.7143 75.8724 18.9498C77.6879 22.2656 78.0283 23.6777 78.0157 27.6743C78.0031 30.0824 77.877 31.1162 77.4105 32.44C76.6541 34.5581 76.0741 35.844 75.3807 36.9283C75.0781 37.4074 74.6243 38.1512 74.3721 38.6177C73.7165 39.8028 71.2958 42.8665 69.4677 44.8459C67.8918 46.5605 66.4797 48.4768 65.6981 50.0024C65.3325 50.7084 65.1055 50.8345 64.223 50.8345C63.3152 50.8345 63.1261 50.721 62.7731 49.9267C62.0797 48.4012 61.3863 47.4682 58.9404 44.8459C58.4613 44.3289 57.4527 43.0934 56.6962 42.11C55.9398 41.1266 55.259 40.2441 55.1833 40.1684C54.6538 39.6515 53.1157 37.1678 52.2836 35.491C50.3168 31.507 49.7621 27.3339 50.7076 23.6399C50.9976 22.4926 51.4389 21.2318 51.6658 20.8914C51.8927 20.5384 52.0819 20.0593 52.0819 19.8198C52.0819 19.5802 52.1953 19.3911 52.334 19.3911C52.4727 19.3911 52.6618 19.1137 52.7501 18.7607C52.8383 18.4077 53.5948 17.2982 54.4395 16.2644C55.8641 14.5246 57.7048 11.4105 57.9066 10.4019C58.663 6.65742 58.6 2.4843 57.7931 1.09746C57.4905 0.593161 57.0114 0.114072 56.7341 0.0510335C56.2676 -0.062435 56.2172 0.0510335 56.3432 0.719237ZM13.553 43.3708C16.1754 43.5977 19.529 44.0264 21.1176 44.3416C21.9497 44.5055 22.7313 44.5685 22.87 44.4802C23.0087 44.392 23.2861 44.4424 23.4752 44.5811C23.7778 44.8206 26.5515 45.5519 28.4174 45.8923C28.7956 45.9553 29.2117 45.8545 29.3377 45.678C29.5016 45.4258 29.5647 45.451 29.5647 45.7662C29.5647 46.094 30.1572 46.3336 31.8088 46.6866C33.0444 46.9513 34.1538 47.1783 34.2673 47.1909C35.1877 47.2665 44.3282 51.1623 50.0142 53.9233C52.5231 55.1337 54.7547 56.1423 54.9564 56.1423C55.1707 56.1423 55.3724 56.2305 55.4229 56.3566C55.4733 56.4701 56.7593 57.1761 58.2596 57.9073C60.6929 59.0925 60.9828 59.3194 60.8694 59.8741C60.7937 60.2271 60.2894 62.32 59.7347 64.5642C58.4739 69.6702 58.2092 71.1705 57.7679 75.9614C57.6418 77.3483 57.4527 77.8148 56.6836 78.6216C56.1793 79.1512 55.4481 80.1093 55.0573 80.7271C54.2125 82.0635 52.0188 87.5983 52.0188 88.3799C52.0188 88.6699 51.9306 89.0103 51.8171 89.1112C51.7036 89.2246 51.5902 89.4768 51.5523 89.6533C51.5145 89.8424 51.401 90.3719 51.3128 90.8258C51.2119 91.2797 51.048 91.784 50.922 91.9479C50.8085 92.1118 50.2916 93.2591 49.7873 94.4946C49.283 95.7302 48.2491 97.9995 47.5053 99.5503C46.7488 101.101 46.1437 102.463 46.1437 102.589C46.1437 102.715 45.7276 103.408 45.2233 104.127C44.719 104.845 44.1391 105.753 43.9373 106.131C43.0926 107.733 40.2433 111.427 38.5035 113.166C36.2971 115.373 34.8977 116.142 30.8254 117.39C27.6483 118.361 25.6185 119.395 24.1686 120.781C23.4248 121.5 22.7692 122.257 22.7187 122.471C22.6809 122.685 22.4792 123.253 22.2901 123.706C22.101 124.173 21.8236 125.169 21.6849 125.913C21.4075 127.388 21.231 127.791 20.878 127.791C20.1972 127.791 20.4242 123.971 21.2689 121.475C21.7227 120.138 24.3703 114.679 24.8368 114.125C25.0133 113.91 25.0764 113.746 24.9629 113.746C24.862 113.746 25.089 113.129 25.4672 112.385C26.1984 110.935 27.0684 108.426 29.0099 102.223C30.5481 97.3061 32.4014 93.5995 34.5447 91.204C35.049 90.6367 35.4776 90.0567 35.4776 89.9433C35.4776 89.8172 35.818 89.5272 36.2341 89.2625C36.6628 88.9977 37.3057 88.506 37.6966 88.1404C38.743 87.157 42.0966 84.812 42.4623 84.812C42.6514 84.812 42.7774 84.7111 42.7774 84.585C42.7774 84.459 43.307 84.0555 43.95 83.7025C45.4755 82.8578 51.2245 78.8486 52.8005 77.5374C54.4143 76.1884 54.3512 75.8228 52.5105 75.8354C50.5059 75.848 44.4543 77.3609 44.4543 77.8526C44.4543 78.0039 44.3282 78.0417 44.1769 77.9408C44.0256 77.84 43.3322 78.0291 42.6388 78.3443C41.9453 78.6595 41.3276 78.9242 41.2519 78.9242C41.0376 78.9242 36.7258 80.9667 36.5745 81.1432C36.4989 81.2314 35.8685 81.5088 35.1751 81.7609C34.4816 82.0131 32.8426 82.6435 31.5315 83.1856C28.6947 84.3329 26.9045 84.5094 24.6099 83.8412C22.3405 83.1856 21.7732 82.8578 19.2643 80.7649C14.8768 77.1087 14.1456 76.0245 13.9186 72.8347C13.7547 70.5402 13.3765 69.7081 11.6493 67.8043C6.20277 61.8409 5.48414 60.5297 3.2652 52.5365C1.68925 46.8631 1.53796 45.7158 2.2692 44.4046C2.73568 43.5599 3.00044 43.396 4.04687 43.2573C5.35806 43.0556 10.9558 43.1438 13.553 43.3708ZM124.525 43.1817C125.357 43.2195 125.597 43.3834 125.988 44.2155C126.795 45.9175 126.568 47.7456 124.739 54.0368C124.424 55.1085 124.134 56.1675 124.071 56.4196C123.769 57.7056 122.596 60.391 121.865 61.5005C121.008 62.7865 118.02 66.4175 115.813 68.8507C114.653 70.1367 114.578 70.3258 114.49 72.1161C114.363 74.5494 114.187 75.3815 113.494 76.554C112.75 77.8148 107.581 82.1896 105.916 82.9713C105.172 83.3243 104.668 83.6899 104.782 83.816C104.895 83.9421 104.832 83.9547 104.643 83.8538C104.466 83.7529 103.723 83.8286 103.029 84.0177C100.571 84.6859 96.738 83.5512 89.6777 80.0589C88.127 79.2898 85.2651 78.1552 83.2857 77.5374C81.3063 76.907 79.3899 76.3018 79.0117 76.1632C78.0535 75.8354 75.0277 75.7471 74.599 76.0371C74.3217 76.2262 74.3217 76.3397 74.599 76.6927C75.116 77.3357 78.3687 79.7437 78.7217 79.7437C78.8856 79.7437 79.0117 79.8446 79.0117 79.958C79.0117 80.1472 82.9957 82.9334 83.9287 83.3999C84.6599 83.7655 90.1568 87.4974 90.9133 88.1404C95.2755 91.8722 97.7088 96.3605 100.482 105.741C101.504 109.22 102.323 111.225 104.731 116.142C105.853 118.436 107.038 121.147 107.366 122.13C107.959 123.946 108.11 126.594 107.681 127.64C107.48 128.144 107.442 128.157 107.278 127.69C106.849 126.455 106.774 126.178 106.648 125.522C106.232 123.227 104.87 120.529 104.29 120.895C104.139 120.996 104.025 120.895 104.013 120.693C104 120.239 101.882 118.89 100.356 118.361C100.281 118.336 100.041 118.235 99.789 118.146C99.5495 118.046 98.2131 117.604 96.8263 117.163C95.4394 116.722 93.75 116.079 93.107 115.751C91.7958 115.083 87.4336 111.023 87.4336 110.468C87.4336 110.254 87.3075 110.09 87.1562 110.09C87.0049 110.09 86.8789 109.914 86.8789 109.699C86.8789 109.485 86.778 109.271 86.6645 109.22C86.551 109.17 85.8324 108.161 85.0886 107.014C84.3447 105.867 83.5126 104.581 83.2479 104.202C81.861 102.173 77.7509 92.9439 76.7549 89.6029C76.4145 88.4556 75.822 86.7283 75.4564 85.808C75.0907 84.875 74.7882 84.0177 74.7882 83.879C74.7882 83.5008 73.5778 81.0549 73.3383 80.954C73.2248 80.9036 73.124 80.7019 73.124 80.5128C73.124 80.3237 72.5944 79.6176 71.9388 78.9242C71.2706 78.2308 70.7285 77.5626 70.7033 77.3987C70.6781 77.2474 70.5772 76.0497 70.4764 74.7385C70.2494 71.8261 69.7325 68.9138 68.9004 65.7241C68.56 64.4129 68.2322 63.0891 68.1818 62.7865C68.1313 62.4713 67.9548 61.677 67.7783 60.9836C67.6018 60.2902 67.5262 59.5968 67.6018 59.4203C67.7153 59.1303 71.6741 57.0752 74.8638 55.6506C75.6077 55.3228 77.8014 54.2763 79.7808 53.3056C81.7602 52.3348 83.9917 51.2883 84.7734 50.9605C85.555 50.6327 86.9293 50.0528 87.8622 49.6494C90.5351 48.5147 93.0566 47.5943 94.5695 47.2161C95.3512 47.027 96.1202 46.8253 96.2715 46.7874C96.4228 46.737 97.091 46.6109 97.7592 46.4975C98.5913 46.3462 98.9569 46.1444 98.9569 45.8293C98.9569 45.5141 99.02 45.4762 99.1713 45.7284C99.3226 45.9679 99.6504 46.0058 100.293 45.8166C100.798 45.678 101.201 45.6149 101.201 45.6654C101.201 45.7284 101.491 45.6654 101.869 45.5141C102.638 45.2241 107.833 44.2659 111.148 43.7994C114.691 43.2699 120.428 43.0178 124.525 43.1817Z" fill="white"/>
<path d="M4.99237 45.7908C4.715 46.2321 5.97576 49.6362 6.93394 51.086C8.77465 53.8345 9.83369 54.8179 12.3552 56.0534C15.7214 57.7176 17.3604 57.3772 17.1335 55.0448C16.9192 52.9898 15.5828 50.027 15.0028 50.38C14.8767 50.4556 14.7759 50.317 14.8011 50.0774C14.8641 49.2705 10.275 46.0934 9.63197 46.4843C9.46807 46.5851 9.36721 46.5473 9.36721 46.3834C9.36721 46.2321 8.64858 45.9673 7.79126 45.8034C5.79926 45.4 5.23191 45.4 4.99237 45.7908Z" fill="white"/>
<path d="M28.3669 50.5691C27.8121 50.8843 27.8121 50.9726 28.3417 54.6414C28.4929 55.7383 28.4677 55.8013 27.6987 55.94C27.2448 56.0282 26.7027 56.1669 26.4379 56.2804C26.0975 56.4191 25.7697 56.0913 25.1393 54.9692C24.219 53.3428 22.7817 51.6534 22.29 51.6534C22.1261 51.6534 21.874 51.8803 21.7227 52.1703C21.5083 52.5864 21.6974 53.0402 22.6178 54.3514C23.2608 55.2592 23.9416 56.1795 24.1433 56.3812C24.6602 56.9108 24.6098 57.0747 23.7525 57.6042C23.0339 58.0454 22.9456 58.0328 21.7227 57.1503C20.1719 56.0534 19.655 55.8391 19.1759 56.1291C18.6464 56.4569 19.0372 57.226 20.0332 57.7807C21.8992 58.8271 21.8992 58.7893 20.651 60.4157C19.5289 61.8908 18.6086 64.0341 18.6086 65.1814C18.6086 65.4965 18.9742 66.1017 19.4281 66.5556C19.8819 67.0095 20.1719 67.3751 20.0837 67.3751C19.9954 67.3751 20.4871 67.8037 21.1805 68.3459C22.6808 69.4931 26.0471 71.1574 26.4253 70.9178C26.5892 70.8169 26.7279 70.8548 26.7909 71.0187C26.8413 71.17 27.2574 71.3591 27.7113 71.4347C29.7411 71.8003 31.1784 71.9768 32.0231 71.9516C32.5274 71.939 33.3721 71.9138 33.9394 71.9012C34.5068 71.8886 34.8724 71.7625 34.7841 71.6238C34.6959 71.4852 34.8598 71.4347 35.1624 71.5104C36.0197 71.7373 41.6679 69.5688 42.2226 68.7997C42.2983 68.6989 43.0799 68.3206 43.9625 67.955C45.7528 67.2112 45.9923 66.6564 44.9837 65.5974C44.6559 65.2444 44.3281 64.7401 44.2903 64.4753C44.1894 63.7819 41.7183 60.6426 40.508 59.6718L39.4616 58.8271L40.0415 57.7681C40.3567 57.1755 40.6971 56.709 40.798 56.709C40.8988 56.709 41.1384 56.2299 41.3527 55.6122C41.7183 54.5153 41.6049 53.6328 41.1005 53.6328C40.7223 53.6328 39.575 55.2592 39.1212 56.4443C38.9194 56.9738 38.6421 57.5411 38.5286 57.6798C38.4025 57.8185 37.5578 57.6168 36.5366 57.2133C35.5532 56.8225 34.5446 56.4317 34.2798 56.3434C33.8386 56.1921 33.8386 56.0787 34.2042 55.0322C34.4311 54.4018 34.6455 53.2293 34.6833 52.4225C34.7589 51.1365 34.6959 50.96 34.2294 50.96C33.6621 50.96 33.5612 51.1995 32.9434 54.2506L32.6156 55.8517L31.4683 55.7383C30.0941 55.5996 29.8672 55.2844 29.8672 53.5824C29.8672 52.8637 29.7411 52.1955 29.5898 52.0947C29.4385 52.0064 29.3755 51.7542 29.4385 51.5777C29.5142 51.376 29.4259 51.0356 29.2242 50.7582C28.9594 50.38 28.7703 50.3422 28.3669 50.5691ZM31.5566 58.1967C31.5566 58.8145 30.6867 59.7979 30.1445 59.7979C29.8672 59.7979 29.4133 59.4575 29.1611 59.0667C28.7577 58.4489 28.7451 58.2976 29.0603 58.0959C29.6528 57.705 31.5566 57.7807 31.5566 58.1967ZM34.0403 58.3859C34.1538 58.3859 34.6076 58.7136 35.0237 59.1045L35.8054 59.8231L35.175 60.4913C34.6202 61.0839 34.4942 61.1091 34.1412 60.7561C33.9142 60.5291 33.4856 60.1761 33.1704 59.9492C32.7417 59.6466 32.6408 59.3566 32.7795 58.8019C32.9182 58.2724 33.0947 58.0959 33.3973 58.2093C33.6368 58.3102 33.9268 58.3859 34.0403 58.3859ZM28.5434 60.4157C28.7199 60.5417 28.6821 60.8822 28.4173 61.3865C28.0643 62.0925 27.8752 62.1807 26.6901 62.206C25.9462 62.2186 25.3663 62.1051 25.3663 61.9412C25.3663 61.4747 26.1858 59.987 26.8287 59.2936L27.4213 58.6506L27.8373 59.4449C28.0769 59.8735 28.3921 60.3148 28.5434 60.4157ZM24.6602 59.4575C24.5468 59.7223 24.3072 60.693 24.1055 61.6008C23.7651 63.202 23.8029 63.5802 24.4963 65.6983C24.6728 66.2278 24.8493 66.8329 24.8872 66.9968C24.925 67.1734 25.1519 67.6272 25.4041 68.0307C25.6562 68.4341 25.7823 68.8249 25.6941 68.9132C25.3536 69.2536 21.7857 66.8329 20.7393 65.547C19.9954 64.6392 19.9702 64.551 20.3989 63.908C20.651 63.5298 20.8527 63.0759 20.8527 62.8994C20.8527 62.3825 22.353 60.6048 23.5003 59.7727C24.7863 58.8397 24.9376 58.8019 24.6602 59.4575ZM40.9745 62.6598C42.21 63.9962 43.6221 66.0387 43.4708 66.2656C43.3069 66.5304 37.4317 69.3671 36.8014 69.4931C36.5366 69.5436 36.234 69.4427 36.1332 69.2788C36.0197 69.0897 36.0575 69.0393 36.234 69.1527C36.5618 69.3545 37.9739 67.7155 38.4782 66.543C38.9194 65.5091 38.8564 62.1555 38.3647 61.0082L37.9487 60.0122L39.0329 60.8695C39.6129 61.336 40.508 62.1555 40.9745 62.6598ZM37.4065 63.4919C37.4191 63.5928 36.8644 63.6684 36.1584 63.6684C35.0111 63.6558 34.9102 63.6054 35.0615 63.0633C35.1498 62.7481 35.5154 62.1681 35.8432 61.8151L36.4483 61.1595L36.9148 62.2312C37.1796 62.8237 37.3939 63.3911 37.4065 63.4919ZM28.0265 64.261C28.1651 64.8914 28.0265 65.3452 27.4213 66.2278C26.98 66.8708 26.5514 67.3877 26.4505 67.3877C26.0092 67.4129 25.1771 64.2484 25.4923 63.7441C25.5932 63.5802 26.1731 63.4541 26.7531 63.4541C27.7113 63.4415 27.8626 63.5298 28.0265 64.261ZM37.0913 65.1183C37.2552 65.1561 36.2718 67.2616 35.9314 67.6146C35.6289 67.9298 35.4271 67.8163 34.7967 66.9842C34.2672 66.2908 34.0907 65.7991 34.2168 65.3957C34.3807 64.8914 34.5824 64.8283 35.7045 64.9544C36.4357 65.0301 37.0409 65.1057 37.0913 65.1183ZM29.9176 66.5556C30.4849 66.8077 30.548 66.9968 30.4597 68.2324C30.3463 69.8083 29.968 69.9848 28.4677 69.1527C27.4087 68.5602 27.3961 68.3963 28.3038 67.2238C29.1107 66.1647 29.0729 66.19 29.9176 66.5556ZM33.6999 66.7321C33.599 66.8329 33.7755 67.3373 34.1033 67.8668C34.4311 68.3963 34.6455 68.8502 34.5824 68.9006C34.3807 69.0645 32.5526 69.6192 32.1996 69.6192C31.6701 69.6192 31.7961 67.3499 32.3635 66.9086C32.8174 66.543 34.0403 66.3917 33.6999 66.7321Z" fill="white"/>
<path d="M46.5344 58.0833C45.488 58.7136 45.0341 59.4449 45.0341 60.4661C45.0341 61.6134 46.1058 61.4117 47.5809 59.9996C48.9173 58.7136 49.182 58.1463 48.6273 57.7933C48.0473 57.4277 47.4926 57.5033 46.5344 58.0833Z" fill="white"/>
<path d="M13.3386 60.6804C11.8383 61.3234 11.5735 61.9412 12.4813 62.6472C13.4899 63.4163 15.3936 63.328 16.5409 62.4455C18.0412 61.2982 17.7765 60.6678 15.6584 60.34C14.8641 60.2266 14.1707 60.3274 13.3386 60.6804Z" fill="white"/>
<path d="M48.7534 63.8575C46.5218 64.6266 47.0135 65.963 49.535 65.9756C50.4428 65.9756 52.044 65.2192 52.0314 64.7779C52.0187 64.0214 51.5397 63.6684 50.6823 63.7945C50.2033 63.8701 49.7872 63.8323 49.7494 63.7315C49.6989 63.6306 49.2577 63.681 48.7534 63.8575Z" fill="white"/>
<path d="M46.8622 68.7619C46.547 69.2788 47.0892 69.8839 48.4004 70.4513C49.9511 71.1321 50.9093 71.2077 50.9093 70.6656C50.9219 69.5057 47.417 67.8667 46.8622 68.7619Z" fill="white"/>
<path d="M17.0831 69.2283C15.8223 69.8839 15.381 70.3756 15.318 71.1699C15.2045 72.5946 17.0578 72.4307 18.2304 70.9051C18.722 70.2622 18.9112 69.7578 18.7851 69.3796C18.5581 68.6736 18.2051 68.6484 17.0831 69.2283Z" fill="white"/>
<path d="M42.4874 70.9052C41.92 71.586 42.3865 72.5946 43.912 73.9562C45.5384 75.4187 46.3201 75.5952 46.5722 74.574C46.774 73.7671 46.131 72.708 44.5802 71.3464C43.4834 70.3756 43.0043 70.2748 42.4874 70.9052Z" fill="white"/>
<path d="M21.4957 72.2416C20.6762 72.6955 19.3146 74.5992 19.0877 75.6078C18.9364 76.2508 19.0372 76.4399 19.6298 76.7173C20.3106 77.0325 20.4241 76.9694 21.5336 75.7969C22.6682 74.5992 23.6264 72.7207 23.1095 72.7207C22.9708 72.7207 22.87 72.5568 22.9204 72.3677C23.0086 71.8886 22.2522 71.8255 21.4957 72.2416Z" fill="white"/>
<path d="M37.4948 72.9098C36.9022 73.1494 37.1292 75.0405 37.936 76.5156C38.5412 77.6124 38.8438 77.9024 39.4111 77.9024C40.0541 77.9024 40.1172 77.8016 40.1298 76.7803C40.1424 76.1626 39.9785 75.3053 39.7641 74.8766C39.5624 74.4479 39.449 74.0949 39.5246 74.0949C39.6002 74.0949 39.3607 73.7797 38.9951 73.4015C38.3395 72.7207 38.1378 72.6577 37.4948 72.9098Z" fill="white"/>
<path d="M26.3623 74.1957C25.7697 76.1499 25.4293 80.4743 25.8958 80.197C26.0849 80.0835 26.211 80.1213 26.211 80.2978C26.211 80.4491 26.4001 80.5878 26.6144 80.5878C27.9256 80.5878 29.0225 76.0112 28.0517 74.5488C27.56 73.7923 26.5388 73.578 26.3623 74.1957Z" fill="white"/>
<path d="M32.1239 74.8009C31.6701 75.6456 31.8844 77.9024 32.5148 79.1379C33.0821 80.2348 33.3847 80.2348 33.9394 79.1631C34.3177 78.4445 34.3303 78.0663 34.0655 76.8055C33.8134 75.6078 32.9813 74.1075 32.5652 74.1075C32.5274 74.1075 32.3257 74.4353 32.1239 74.8009Z" fill="white"/>
<path d="M48.8038 84.4079C48.186 84.9501 47.2026 85.7065 46.6101 86.0974C46.0175 86.4756 43.8112 88.5306 41.7183 90.6487C38.9573 93.435 37.3687 95.3135 35.9819 97.4316C34.9354 99.0328 34.0655 100.508 34.0655 100.697C34.0655 100.886 33.889 101.176 33.6495 101.378C33.4099 101.58 33.2334 101.895 33.2334 102.134C33.2334 102.361 32.9939 102.891 32.7039 103.294C31.7457 104.656 29.7159 110.758 30.0437 111.287C30.3084 111.716 32.1239 111.313 34.1033 110.392C36.1836 109.421 38.2638 107.934 39.3481 106.635C39.7263 106.181 40.1802 105.664 40.3315 105.488C41.0123 104.744 44.5298 97.9737 45.5384 95.4522C45.7528 94.9227 46.2949 93.6745 46.7488 92.6533C47.2026 91.6321 47.833 90.1948 48.1356 89.4132C48.4508 88.6315 48.8038 87.8876 48.9299 87.7238C49.056 87.5725 49.535 86.5386 50.0141 85.4166C50.758 83.6515 50.8084 83.3867 50.3924 83.3993C50.1528 83.4119 49.4216 83.8658 48.8038 84.4079Z" fill="white"/>
<path d="M119.873 46.0052C118.083 46.5221 116.734 47.1525 115.7 47.9594C114.363 48.9932 112.409 51.1239 112.56 51.376C112.661 51.5399 112.624 51.6408 112.46 51.6408C112.22 51.6408 111.766 52.5485 111.728 53.1159C111.716 53.2293 111.628 53.3806 111.514 53.5067C111.401 53.6202 111.312 54.3892 111.312 55.2213C111.312 56.583 111.388 56.7595 112.031 57.0116C114.237 57.8563 119.205 54.8053 121.487 51.1995C122.319 49.8883 123.605 46.333 123.441 45.8287C123.29 45.3496 121.852 45.4252 119.873 46.0052Z" fill="white"/>
<path d="M99.3603 50.6448C99.0451 50.8717 98.919 51.1743 99.0199 51.4769C99.1208 51.7417 99.0955 51.9434 98.9569 51.9434C98.8308 51.9434 98.6291 52.7755 98.5156 53.7589C98.4021 54.7423 98.2256 55.587 98.1248 55.5996C96.1454 55.8139 95.578 55.7761 95.5402 55.4231C95.515 55.2087 95.4772 54.9314 95.4519 54.8179C95.4267 54.7044 95.3007 53.8975 95.1872 53.015C94.9603 51.3004 94.3299 50.3926 93.876 51.1113C93.523 51.6786 93.5482 52.372 94.0147 54.3262C94.2416 55.2592 94.3299 56.0913 94.229 56.2047C94.1281 56.3056 93.4095 56.5956 92.6405 56.8603C91.8588 57.1251 90.9763 57.4907 90.6485 57.705C90.0937 58.0581 90.0055 57.9698 89.0347 55.9904C88.253 54.4145 87.8622 53.9102 87.4335 53.9102C87.1183 53.9102 86.7905 54.1119 86.7023 54.364C86.5636 54.7423 86.8662 55.3222 88.5808 58.0581C88.9464 58.6254 88.8834 58.7515 87.8496 59.7349C86.1601 61.3234 84.0799 64.0088 84.0799 64.5888C84.0799 64.8662 83.7647 65.3074 83.3865 65.5596C82.2266 66.3286 82.5039 66.959 84.4329 67.9676C90.9006 71.3591 93.3717 72.1155 97.3809 71.9264C97.9104 71.9012 98.0869 71.7877 97.9483 71.5482C97.7718 71.2708 97.8096 71.2708 98.1374 71.523C98.6417 71.939 100.571 71.6238 102.689 70.7917C107.555 68.8628 110.178 66.4421 109.762 64.2736C109.522 63.0128 108.476 60.9956 107.58 60.0501C107.202 59.6466 106.874 59.1801 106.874 59.0288C106.874 58.8776 107.404 58.4615 108.047 58.1085C109.219 57.4529 109.673 56.646 109.144 56.1165C108.829 55.8013 107.618 56.3686 106.332 57.4529C105.5 58.1589 105.45 58.1589 104.769 57.6672C104.366 57.3773 104.063 57.0747 104.063 56.9612C104.063 56.8477 104.681 55.9274 105.462 54.8936C106.95 52.9142 107.19 52.0821 106.383 51.7795C105.815 51.5651 103.836 53.6958 103.029 55.3726C102.676 56.1165 102.374 56.4191 102.084 56.3056C101.844 56.2173 101.277 56.0787 100.798 56.003C99.9403 55.8517 99.9403 55.8517 100.155 54.5405C100.445 52.7503 100.445 50.6322 100.155 50.4557C99.9781 50.3422 99.6251 50.4557 99.3603 50.6448ZM99.5368 58.1463C99.7637 58.2976 99.6503 58.6002 99.1586 59.1927C98.3139 60.2014 97.6331 60.0501 97.0783 58.7389L96.7001 57.8311L97.9609 57.8816C98.6543 57.9068 99.3603 58.0202 99.5368 58.1463ZM95.6915 58.8523C95.7924 59.2558 95.8428 59.6088 95.7924 59.634C95.7419 59.6592 95.3007 59.9618 94.7585 60.3274L93.813 60.983L93.233 60.4031C92.7287 59.8988 92.7035 59.7727 93.0565 59.344C93.3969 58.9154 94.8342 58.1463 95.3133 58.1211C95.4141 58.1211 95.5906 58.4489 95.6915 58.8523ZM101.642 59.3188C102.487 60.3022 103.143 61.626 102.916 61.916C102.802 62.0673 102.21 62.206 101.567 62.2312C100.583 62.2816 100.369 62.1807 100.079 61.563C99.8016 60.9704 99.8268 60.7183 100.18 60.1887C100.419 59.8357 100.621 59.3314 100.621 59.1045C100.634 58.4993 100.999 58.575 101.642 59.3188ZM104.92 59.7475C106.307 60.8569 107.303 62.0925 107.517 62.9876C107.618 63.3911 107.807 63.8071 107.946 63.8828C108.35 64.1349 108.223 64.967 107.694 65.5974C107.026 66.4043 103.458 68.7745 102.916 68.7745C102.6 68.7745 102.588 68.6989 102.853 68.3711C103.37 67.7533 104.277 65.0805 104.277 64.198C104.277 63.7693 104.391 63.4163 104.517 63.4163C104.794 63.4163 104.139 60.2644 103.697 59.4323C103.294 58.7137 103.773 58.8271 104.92 59.7475ZM90.3207 60.5796C90.2198 60.8443 90.0181 61.2226 89.8542 61.4369C89.4003 62.0295 89.4003 64.8662 89.8542 66.2278C90.4341 67.9424 91.531 69.3671 92.1235 69.1906C92.5018 69.0771 92.5144 69.1023 92.2118 69.304C91.947 69.4806 91.4175 69.4301 90.5728 69.1401C89.186 68.6611 84.2942 66.0009 84.7985 65.9882C84.975 65.9882 85.3028 65.5848 85.5424 65.0805C86.0215 64.0719 87.5218 62.4077 89.2364 61.0082C90.5602 59.9366 90.5602 59.9366 90.3207 60.5796ZM92.6783 61.9412C93.6617 63.0885 93.523 63.5802 92.1866 63.6558C91.2284 63.7189 91.0645 63.6432 91.178 63.2272C91.2536 62.9498 91.4049 62.3825 91.5184 61.9538C91.7579 61.0335 91.8966 61.0335 92.6783 61.9412ZM102.512 63.6432C103.092 63.7945 103.13 63.9206 102.966 64.8283C102.727 66.1395 102.033 67.5264 101.768 67.2112C100.445 65.6352 100.142 64.967 100.394 64.2484C100.684 63.4289 101.201 63.2902 102.512 63.6432ZM94.1282 65.3074C94.3173 65.6352 94.1912 66.0513 93.6617 66.8582L92.943 67.955L92.1992 67.1734C91.4553 66.3917 91.2032 65.4083 91.6571 65.1309C92.2874 64.7401 93.8634 64.8536 94.1282 65.3074ZM95.8554 66.8582C95.8554 67.0095 95.9815 67.0473 96.1328 66.9464C96.2967 66.8456 96.4101 67.1481 96.4101 67.7029C96.4101 68.2072 96.4858 68.9384 96.5866 69.2788C96.7631 69.947 96.7631 69.947 93.9516 68.9132C93.6743 68.8123 93.7625 68.535 94.3047 67.8416C94.6955 67.3373 95.0233 66.7573 95.0233 66.5808C95.0233 66.3917 95.1998 66.3286 95.4393 66.4169C95.6789 66.5304 95.8554 66.7069 95.8554 66.8582ZM100.142 67.2868C100.672 68.0307 100.798 68.4341 100.583 68.6737C100.23 69.1023 98.3895 69.7327 98.1626 69.5058C98.0743 69.4175 97.9483 68.7997 97.8852 68.1315C97.7844 67.0599 97.8474 66.8834 98.4021 66.606C99.3603 66.1648 99.3603 66.1647 100.142 67.2868Z" fill="white"/>
<path d="M79.8185 57.5789C79.7933 57.642 79.7429 57.9824 79.705 58.3228C79.6168 59.1927 81.8357 61.2856 82.7183 61.1595C84.2438 60.9451 82.6174 58.0202 80.7641 57.6546C80.2598 57.5537 79.8437 57.5159 79.8185 57.5789Z" fill="white"/>
<path d="M111.186 60.7939C110.064 61.9286 112.334 63.4163 114.679 63.1011C115.75 62.9624 116.935 62.042 116.343 61.8277C116.179 61.7647 116.128 61.6386 116.204 61.4999C116.28 61.3738 115.914 61.0713 115.372 60.8191C114.149 60.2266 111.754 60.2139 111.186 60.7939Z" fill="white"/>
<path d="M77.6878 63.6684C76.5153 63.7945 76.0867 64.324 76.6036 65.0174C76.8179 65.3074 77.0953 65.5595 77.2213 65.5848C77.3474 65.5974 77.65 65.6982 77.9148 65.8117C78.1669 65.9252 78.936 65.9756 79.6042 65.9378C80.6758 65.8621 80.8271 65.7739 80.9154 65.1183C80.991 64.5257 80.8523 64.324 80.2094 64.0845C78.999 63.618 78.6586 63.5675 77.6878 63.6684Z" fill="white"/>
<path d="M78.8729 69.1527C77.5365 69.9092 77.1457 71.0439 78.23 71.0187C79.3773 71.0061 81.3819 69.8462 81.4827 69.1275C81.5584 68.5854 81.4575 68.4845 80.7893 68.4972C80.348 68.5098 79.4781 68.8123 78.8729 69.1527Z" fill="white"/>
<path d="M109.787 68.9888C109.068 69.7074 110.379 71.6994 111.791 72.0524C112.649 72.2668 113.393 71.586 113.153 70.8169C112.813 69.7452 110.354 68.4214 109.787 68.9888Z" fill="white"/>
<path d="M83.2226 71.8256C82.1005 72.8972 81.8105 73.3637 81.8105 74.0823C81.8105 75.2044 82.3905 75.4692 83.4117 74.8136C84.5842 74.0571 86.3114 72.0651 86.1601 71.6491C86.0845 71.4347 86.0215 71.1321 86.0215 70.943C86.0215 70.7665 85.7063 70.5774 85.328 70.5396C84.849 70.4891 84.2186 70.88 83.2226 71.8256Z" fill="white"/>
<path d="M105.45 72.3424C105.135 72.9098 105.588 74.7379 106.131 75.0531C106.345 75.1791 106.534 75.4439 106.534 75.633C106.534 76.0112 107.82 76.7551 108.438 76.7425C109.245 76.7173 109.346 76.6164 109.346 75.9608C109.346 75.0279 108.009 72.8972 107.076 72.3424C106.093 71.7625 105.778 71.7625 105.45 72.3424Z" fill="white"/>
<path d="M89.1103 73.7923C88.0639 75.3935 87.9756 78.0411 88.9716 78.0411C89.5264 78.0411 90.951 75.7717 91.1906 74.511C91.5436 72.6072 90.1946 72.1407 89.1103 73.7923Z" fill="white"/>
<path d="M100.508 74.2966C99.3603 75.4439 100.457 80.7013 101.794 80.4996C102.865 80.3357 102.953 79.9701 102.588 77.1838C102.399 75.7465 102.121 74.3849 101.957 74.1958C101.592 73.7167 101.037 73.7671 100.508 74.2966Z" fill="white"/>
<path d="M95.0863 74.7505C94.2164 75.8726 93.8886 78.6463 94.5568 79.3271C95.4646 80.2474 96.095 79.491 96.5488 76.919C96.8514 75.1792 95.8806 73.7293 95.0863 74.7505Z" fill="white"/>
<path d="M77.6122 83.4497C77.6122 83.6262 77.9148 84.4079 78.2804 85.1896C80.0454 88.9845 80.6884 90.3965 80.6884 90.5352C80.6884 90.6235 81.1675 91.7203 81.7727 93.0063C82.3779 94.2923 82.9452 95.6035 83.0587 95.9565C83.4117 97.0912 86.2862 102.752 87.3326 104.404C88.543 106.307 91.5058 109.22 92.237 109.22C92.527 109.22 92.7665 109.333 92.7665 109.459C92.7665 109.598 93.6491 110.102 94.7459 110.594C96.6118 111.439 98.0113 111.628 98.4021 111.086C98.6291 110.77 96.6497 104.883 95.7797 103.307C95.4015 102.613 94.5064 100.974 93.7877 99.6631C93.0691 98.3519 91.9722 96.5869 91.3419 95.7295C89.892 93.7754 82.9452 86.7403 82.4661 86.7403C82.277 86.7403 82.0753 86.6395 82.0248 86.526C81.9744 86.4125 81.2432 85.7569 80.3985 85.0509C79.5411 84.3575 78.6964 83.6388 78.4821 83.4371C78.0408 83.0211 77.6122 83.0211 77.6122 83.4497Z" fill="white"/>
</g>
<defs>
<clipPath id="clip0_1_282">
<rect width="128.358" height="129.442" fill="white" transform="translate(-0.000244141)"/>
</clipPath>
</defs>
</svg>
