<svg width="87" height="108" viewBox="0 0 87 108" fill="none" xmlns="http://www.w3.org/2000/svg">
<path d="M5.86358 0.388777C5.67447 0.615714 5.42232 1.68736 5.27102 2.78422C5.13234 3.88108 4.95583 4.87709 4.8928 4.99055C4.60282 5.46964 3.58161 14.8623 3.19077 20.6114C2.96383 24.0028 2.63603 28.2516 2.47214 30.0293C1.80393 37.14 1.79133 36.7113 2.72429 39.2076C3.19077 40.4684 3.69507 41.7417 3.84637 42.0191C4.4011 43.0655 5.78794 46.2048 6.00227 46.8856C6.12834 47.2639 6.78394 48.7894 7.46475 50.2519C8.14556 51.727 9.02809 53.6811 9.41893 54.6141C9.80976 55.5471 10.2889 56.6691 10.5032 57.1356C10.7049 57.6021 11.3227 58.9889 11.8522 60.2245C12.3943 61.4726 13.5164 63.9185 14.3737 65.7088C16.3783 69.9071 19.089 75.8201 19.9085 77.7743C20.2615 78.6316 20.6775 79.4763 20.8288 79.678C21.2827 80.2706 22.9973 84.305 22.8712 84.4941C22.8082 84.595 20.8792 84.7085 18.5847 84.7337C14.0964 84.7967 10.6923 85.3767 9.93584 86.1962C9.55761 86.6122 9.10374 90.5584 9.17938 92.7269C9.19199 92.9917 9.05331 93.2186 8.86419 93.2312C8.68769 93.2438 8.2086 93.3195 7.83037 93.3825C7.45214 93.4455 6.25442 93.6346 5.18277 93.7985C1.62743 94.3281 1.84176 94.0129 0.681855 100.405C-0.137639 104.931 -0.18807 105.801 0.366665 106.583C0.770109 107.15 0.845755 107.163 28.2421 107.049C58.7273 106.936 65.195 106.822 79.5929 106.217C81.8875 106.116 84.2073 106.053 84.699 106.078C86.0606 106.141 86.3001 105.473 85.8967 102.826C85.7076 101.628 85.5185 100.266 85.4806 99.7746C85.3041 97.9338 84.4468 94.1768 84.0686 93.5716C83.6904 92.979 83.4634 92.9286 81.0301 92.9286C79.1642 92.9286 78.3069 92.8152 78.0926 92.5504C77.9161 92.3487 77.79 91.1888 77.79 89.9532C77.79 88.7177 77.6891 87.293 77.5631 86.7383C77.3613 85.8558 77.2353 85.7423 76.3653 85.7297C75.8358 85.7171 74.4994 85.5658 73.4278 85.3767C72.3435 85.1875 70.238 84.9732 68.7377 84.885L66.0145 84.7211L66.191 83.9772C66.2792 83.5738 66.4684 82.9308 66.5944 82.5904C66.7205 82.2374 66.7457 81.9474 66.6575 81.9474C66.5692 81.9474 66.6323 81.7835 66.7836 81.5944C67.1996 81.0901 67.9687 77.976 67.7543 77.6356C67.6661 77.4969 67.7543 77.4717 67.9308 77.5852C68.1578 77.7238 68.2586 77.6608 68.2082 77.4213C68.1326 77.0304 69.3681 72.8951 70.2254 70.714C70.4902 70.0206 70.7928 69.0498 70.9062 68.5329C71.0071 68.0286 71.2719 67.2721 71.4988 66.8435C71.6879 66.44 71.8644 65.8979 71.8644 65.6205C71.8644 65.3558 72.1166 64.4985 72.4318 63.7168C72.7343 62.9351 72.9235 62.3047 72.8352 62.3047C72.7469 62.3047 72.8604 62.04 73.1126 61.687C73.3647 61.334 73.5538 60.8423 73.5538 60.5523C73.5538 60.2623 74.3607 57.8669 75.3441 55.2193C77.3235 49.8989 77.7143 48.0077 77.0966 46.8226C76.5545 45.7888 74.7894 39.6237 73.6421 34.7823C73.4025 33.7989 72.9739 32.223 72.6839 31.3405C72.3939 30.4579 72.167 29.4997 72.167 29.235C72.167 28.9702 71.9653 28.1886 71.7131 27.4951C70.9693 25.4653 70.9693 25.4275 70.8684 24.4189C70.818 23.902 70.465 22.4017 70.0867 21.0653C69.7085 19.7288 69.3051 18.1529 69.2042 17.5477C69.0025 16.35 68.0317 14.8497 67.4644 14.8497C67.25 14.8497 66.7583 15.0766 66.3297 15.3666C65.9136 15.6566 64.6655 16.4887 63.5686 17.2073C62.4717 17.9386 61.274 18.8085 60.8958 19.1489C60.5176 19.4893 59.6476 20.2205 58.9542 20.7753C58.2608 21.3426 57.3783 22.0613 56.9874 22.4017C56.5966 22.7421 55.651 23.549 54.9072 24.1919C54.1507 24.8349 52.6378 26.2092 51.541 27.2304C50.4441 28.2516 49.2842 29.3232 48.9438 29.6132C48.5908 29.9284 48.2756 30.584 48.1873 31.2522C48.0991 31.87 47.7839 33.6981 47.4813 35.3371C47.1787 36.9634 46.7122 39.4598 46.4349 40.897C46.1575 42.3469 45.8423 43.4059 45.7288 43.2799C45.6154 43.1538 45.2498 41.5274 44.9346 39.6867C43.3334 30.3571 42.9047 28.4029 41.4927 24.0911C40.8623 22.1621 40.2571 20.4601 40.1563 20.3088C40.0554 20.1575 39.8159 19.4893 39.6268 18.8463C39.2107 17.4217 38.5047 16.8543 34.672 14.8371C33.1212 14.0176 31.0158 12.8829 29.9693 12.2904C28.9229 11.6978 28.0656 11.2944 28.0656 11.3826C28.0656 11.4709 27.8386 11.3448 27.5739 11.1179C27.2965 10.8783 24.5607 9.40322 21.4592 7.80205C14.1468 4.08281 9.48197 1.56128 8.18338 0.678752C6.99827 -0.128135 6.35528 -0.203781 5.86358 0.388777ZM7.11174 4.87709C7.59082 8.24332 10.4906 20.561 11.2092 22.2882C11.3353 22.6034 11.7766 23.9902 12.1926 25.3771C12.6087 26.7639 13.2264 28.8568 13.5794 30.0167C13.9325 31.1639 14.3737 32.7651 14.5628 33.5342C14.7519 34.3158 14.9663 35.148 15.0419 35.3875C15.1554 35.7783 14.8654 35.8414 12.9743 35.8666C11.7513 35.8792 9.21721 36.0179 7.28824 36.1818C4.02287 36.4591 3.16555 36.3961 3.45553 35.9422C3.55639 35.7783 3.83376 33.6981 4.28763 29.7393C4.35067 29.1972 4.47675 27.0413 4.57761 24.9484C4.67847 22.8681 4.80454 20.7122 4.86758 20.1701C4.93062 19.628 5.08191 17.4847 5.18277 15.3918C5.42232 10.6262 5.46014 10.2353 5.69968 8.52068C5.81315 7.77684 5.95184 6.75562 6.00227 6.30174C6.46875 2.4186 6.7209 2.10341 7.11174 4.87709ZM12.533 4.65015C14.0333 5.52007 15.9497 6.60433 16.7944 7.0582C17.6517 7.51207 18.4586 7.96595 18.6225 8.09203C18.7864 8.20549 20.1732 8.97456 21.724 9.79405C23.2747 10.6135 24.6615 11.37 24.8128 11.4961C24.9641 11.6095 25.8466 12.1139 26.7796 12.6055C27.7126 13.0972 28.9607 13.7781 29.5911 14.1311C30.2089 14.4715 31.8479 15.3666 33.2473 16.1105C34.6341 16.8543 35.9327 17.6108 36.1218 17.7873C36.3992 18.0394 36.0084 18.6824 34.3442 20.7753C33.1717 22.2504 31.7722 24.1541 31.2301 25.0493C30.688 25.9318 30.2089 26.663 30.1584 26.663C30.1206 26.663 29.8433 26.2848 29.5533 25.8309C28.9481 24.8854 24.6615 20.2205 19.505 14.8875C14.109 9.32757 14.0081 9.2141 14.0081 9.02499C14.0081 8.92413 13.7055 8.52068 13.3399 8.11724C12.4448 7.15906 9.45675 3.06159 9.64587 3.06159C9.73412 3.06159 11.0453 3.78022 12.533 4.65015ZM10.0367 6.11263C11.7261 8.62154 11.8648 8.81066 12.7473 9.83187C13.2138 10.3614 16.101 13.362 19.2024 16.5139C22.3039 19.6658 25.128 22.5656 25.5188 22.9564C26.8426 24.318 28.9103 27.1673 28.9103 27.6086C28.9103 27.8481 28.5068 28.239 28.0025 28.5037C25.4936 29.8023 18.5847 34.4671 17.2987 35.7405C17.0339 36.0053 16.7566 36.1944 16.7061 36.144C16.5548 35.9548 15.1806 30.9874 14.6007 28.6046C14.2855 27.2934 13.7559 25.3518 13.4281 24.2676C12.0791 19.8549 10.831 15.1019 10.0493 11.3448C9.84759 10.4118 9.51979 8.97456 9.29285 8.10463C8.41032 4.70058 8.18338 3.04898 8.72551 4.05759C8.90202 4.36017 9.48197 5.28053 10.0367 6.11263ZM66.1406 17.7999C65.8254 18.6068 64.8168 25.4275 64.7033 27.4825C64.6403 28.6424 64.5142 33.8872 64.4259 39.132C64.3377 44.3767 64.2242 48.7137 64.1738 48.7642C64.1233 48.8146 63.1273 47.4404 61.9674 45.7005C59.1812 41.5526 57.7943 39.5606 57.1765 38.8798C56.9118 38.5898 56.6975 38.2116 56.6975 38.0351C56.6975 37.8712 56.5336 37.556 56.3444 37.3669C56.1679 37.1778 55.9914 36.913 55.9788 36.8248C55.9662 36.7239 55.5123 35.9422 54.9576 35.0849C54.4029 34.2276 53.6716 32.9668 53.3312 32.2734C52.9782 31.58 52.4613 30.7479 52.1713 30.4327C51.6418 29.8401 51.6418 29.8401 53.533 28.0499C55.3863 26.2974 59.1812 23.032 62.3078 20.4853C63.1652 19.7919 64.2999 18.8211 64.8546 18.3042C65.901 17.3208 66.3927 17.1317 66.1406 17.7999ZM67.9308 19.4893C68.0695 19.8045 68.2334 20.2962 68.3217 20.6114C68.3973 20.9266 68.6621 21.8721 68.9016 22.7295C69.1412 23.5868 69.4059 24.8349 69.5068 25.5283C69.6077 26.2092 70.0615 27.9238 70.5154 29.3106C71.2593 31.5674 72.2174 35.5136 73.0495 39.7371C73.2008 40.5062 73.6421 42.4351 74.0203 44.0489C74.7768 47.1756 74.7516 47.2639 73.2639 47.6169C72.3057 47.8438 69.7842 48.6885 67.9435 49.4198C65.195 50.504 65.3841 50.6553 65.548 47.5538C65.838 41.8804 65.9767 38.4259 66.128 32.8408C66.2162 29.6889 66.3297 27.0287 66.4053 26.9278C66.4684 26.8269 66.5944 25.7553 66.6701 24.5197C66.9474 20.2962 67.4013 17.3082 67.5904 18.3672C67.6409 18.6824 67.7922 19.1615 67.9308 19.4893ZM38.8703 22.5403C40.7741 28.655 41.7953 33.3199 44.6194 48.8524C44.7959 49.798 44.6446 51.3613 44.0016 55.1688C43.5351 57.9551 43.0939 60.4136 43.0182 60.6531C42.7913 61.3592 37.8995 49.7728 35.8949 43.7716C35.7688 43.3933 35.3906 42.3847 35.0502 41.5274C34.2433 39.4724 33.1212 36.2574 32.8313 35.211C32.7052 34.7571 32.1504 33.0173 31.5831 31.3657L30.5619 28.3398L31.1923 27.3691C31.5327 26.8395 32.8186 24.961 34.0416 23.2212C35.2645 21.4813 36.5127 19.6406 36.8153 19.1237C37.1178 18.6194 37.4078 18.2411 37.4583 18.2916C37.5339 18.342 38.1517 20.2584 38.8703 22.5403ZM29.465 29.2476C29.465 29.8528 33.4616 42.1956 34.2181 43.9355C34.3568 44.238 34.9872 45.9527 35.6301 47.7177C36.2731 49.4828 36.8909 51.0714 37.0044 51.2227C37.1178 51.3739 37.4456 52.143 37.7356 52.9247C38.7947 55.837 41.934 62.3426 42.4383 62.6451C42.6652 62.7838 42.6526 63.5151 42.4004 65.2297L42.0348 67.6125L39.7654 65.9736C38.5047 65.0658 36.9539 64.0698 36.2857 63.742C35.6175 63.4142 35.0124 63.036 34.9241 62.8847C34.8233 62.7208 34.6594 62.683 34.4955 62.7838C34.3442 62.8721 34.2307 62.8217 34.2307 62.6578C34.2307 62.5065 33.3356 61.9139 32.2639 61.3466C30.5241 60.4388 30.2215 60.1488 29.6037 58.8755C28.5699 56.707 26.6031 53.139 25.481 51.3866C24.9389 50.5292 24.4094 49.6467 24.2959 49.4198C24.195 49.1928 23.4638 48.0455 22.7073 46.8982C21.9383 45.7509 20.9549 44.175 20.5262 43.4438C20.1102 42.7125 19.0764 41.0735 18.2821 39.8506C17.4752 38.615 16.807 37.493 16.807 37.3795C16.807 37.266 17.16 37.0139 17.5887 36.8122C18.0047 36.623 19.1898 35.917 20.1858 35.274C21.1692 34.631 22.8965 33.5216 23.9681 32.8534C25.0398 32.1852 26.6409 31.0757 27.4856 30.4075C28.822 29.3485 29.465 28.9828 29.465 29.2476ZM51.9444 33.4207C52.3983 34.3158 53.3438 35.9296 54.0373 37.0013C54.7307 38.0729 55.3106 39.0185 55.3106 39.1067C55.3106 39.195 55.7771 39.9388 56.3571 40.7962C56.9244 41.6409 58.3112 43.6707 59.4333 45.2971C60.5554 46.9235 61.98 49.218 62.6104 50.3779L63.7577 52.496L61.5766 55.7866C56.584 63.326 55.6006 65.028 51.894 72.4539C50.1163 76.0218 49.5868 77.27 47.8091 82.1365L47.0905 84.1159H44.8589H42.6274L42.8039 81.9978C42.9047 80.8379 43.0939 78.8081 43.2451 77.4969C43.3964 76.1731 43.636 73.9163 43.7747 72.4413C43.926 70.9788 44.2916 68.2555 44.5942 66.4148C44.8967 64.5741 45.1993 62.5317 45.275 61.9265C45.4263 60.6405 45.918 57.5643 46.3088 55.3201C46.6366 53.4416 49.3977 36.6483 49.5363 35.6649C49.5868 35.2866 49.8011 34.1141 50.0028 33.0677C50.4315 30.8361 50.6584 30.874 51.9444 33.4207ZM15.2941 37.5434C15.458 37.6569 16.2649 39.0059 17.0844 40.5566C18.5973 43.3933 21.3331 48.0077 22.72 50.0754C24.5355 52.7734 27.8891 58.5603 28.7338 60.4262C29.6289 62.393 29.6667 62.6451 29.9945 68.2051C30.1837 71.357 30.5241 75.7318 30.7762 77.8877C31.0158 80.0563 31.2805 82.4139 31.3562 83.1577L31.4949 84.4941H28.4438H25.3928L24.712 82.893C23.9681 81.1405 21.8879 76.69 19.4294 71.5839C18.5721 69.7937 17.3743 67.2847 16.7566 65.9736C16.1514 64.6624 15.3193 62.8973 14.9158 62.04C14.5124 61.1827 14.172 60.4262 14.1594 60.3506C14.1468 60.2749 13.6047 59.1024 12.9617 57.7408C12.3187 56.3792 11.7892 55.2067 11.7892 55.1184C11.7892 55.0428 11.2722 53.9333 10.6419 52.6725C10.0115 51.4118 9.50718 50.3401 9.50718 50.3023C9.5324 50.2393 8.49857 47.9825 6.31746 43.3555C4.27502 39.0185 4.06069 38.4007 4.45153 38.1612C4.64064 38.0477 5.57361 37.9216 6.53179 37.8838C7.48996 37.846 9.34328 37.7199 10.6545 37.6064C13.9829 37.3291 14.9537 37.3039 15.2941 37.5434ZM75.2306 49.2811C75.2306 49.5837 73.4404 54.0972 72.5704 55.9883C71.814 57.6525 71.3349 58.825 71.1458 59.5185C71.1206 59.5941 71.0323 59.821 70.9188 60.0606C70.818 60.2875 70.1498 62.1913 69.4311 64.2715C68.7125 66.3518 68.0191 68.2934 67.8678 68.5833C67.7165 68.8607 67.4265 69.6802 67.2248 70.3988C67.0231 71.1175 66.5062 72.7943 66.0901 74.1055C65.6741 75.4166 65.1572 77.2574 64.9554 78.1903C64.4259 80.548 64.1107 81.6196 63.4804 83.2208L62.9256 84.6328L60.1519 84.5446C58.6264 84.4941 57.3531 84.4185 57.3152 84.3807C57.2774 84.3428 57.2144 80.1571 57.1639 75.0762L57.0883 65.8349L57.9204 64.2841C58.3743 63.4268 59.5846 61.4222 60.631 59.7958C61.6775 58.1694 63.0013 55.9757 63.619 54.8789C64.7915 52.7608 65.2706 52.4078 68.3469 51.3992C69.2673 51.0966 70.9945 50.4662 72.1418 50.0123C74.1842 49.2054 75.2306 48.9659 75.2306 49.2811ZM36.8405 66.44C38.9586 67.7008 40.9632 68.8355 41.2657 68.9237C41.6188 69.0372 41.7827 69.2767 41.707 69.5667C41.644 69.8315 41.5053 70.8527 41.4044 71.8613C41.3036 72.8825 41.1145 74.3828 40.9758 75.2401C40.6984 77.0304 40.4841 78.7198 40.2697 80.8253C40.1815 81.6826 40.0554 82.7795 39.9672 83.2838L39.8159 84.1915L37.2313 84.2168C35.8193 84.2294 34.3064 84.2672 33.8777 84.2924C33.1843 84.3428 33.096 84.2546 33.0582 83.4981C33.033 83.0443 32.9952 82.3256 32.9699 81.9474C32.9447 81.5566 32.8313 80.1697 32.7178 78.8585C32.4782 75.9966 31.9865 70.6762 31.8226 69.3146C31.7596 68.7724 31.6335 67.2091 31.5453 65.8727L31.3814 63.4268L32.1757 63.7672C32.6169 63.9689 34.7224 65.1667 36.8405 66.44ZM55.7771 76.2866L55.8401 84.368L52.31 84.3176C50.3558 84.2924 48.7295 84.2042 48.6538 84.1411C48.5908 84.0781 49.0446 82.7921 49.675 81.2666C50.3054 79.7411 50.8097 78.4047 50.8097 78.266C50.8097 78.0264 55.5123 68.2051 55.6258 68.2051C55.6636 68.2177 55.7393 71.8487 55.7771 76.2866ZM71.2971 99.472C72.9865 99.6611 76.6931 100.001 78.1682 100.102C78.9499 100.153 79.6811 100.203 79.7946 100.216C79.9081 100.228 80.0089 100.67 80.0089 101.199V102.17L77.4118 102.195C72.2805 102.246 71.6501 102.233 66.7962 102.044C64.0981 101.93 61.8288 101.804 61.7657 101.741C61.7027 101.678 61.501 101.767 61.2866 101.943C61.0723 102.12 60.9084 102.145 60.8958 102.006C60.8832 101.741 59.572 101.704 46.0062 101.666C36.2479 101.628 24.9767 101.804 20.2993 102.057C15.9623 102.283 12.3061 102.447 8.29685 102.586L4.45153 102.712L4.62804 101.968C4.85497 101.01 4.76672 101.061 6.24181 100.985C6.93523 100.947 7.52779 100.846 7.54039 100.758C7.553 100.518 7.66647 100.518 15.4201 100.392C19.3537 100.329 24.0816 100.191 25.9349 100.077C30.8897 99.7872 31.5453 99.7493 37.8869 99.5224C41.0388 99.4089 43.6864 99.2702 43.7495 99.2198C43.9007 99.0811 69.9354 99.3207 71.2971 99.472Z" fill="white"/>
</svg>
