<svg width="151" height="143" viewBox="0 0 151 143" fill="none" xmlns="http://www.w3.org/2000/svg">
<path d="M65.2111 118.229C70.0092 120.914 75.2605 122.806 77.9161 122.822C78.4129 122.825 78.9283 122.889 79.0302 122.963C79.6517 123.416 87.0758 123.054 92.22 122.309C97.1779 121.585 102.888 119.786 107.842 117.375C109.1 116.763 110.295 116.214 110.483 116.148C110.749 116.062 115.407 113.48 117.513 112.238C118.363 111.735 121.346 109.525 121.641 109.163C121.793 108.977 122.052 108.791 122.213 108.721C122.383 108.658 122.924 108.194 123.424 107.701C123.924 107.207 124.526 106.616 124.756 106.409C124.992 106.191 126.19 104.74 127.432 103.164C129.516 100.518 131.21 97.5718 131.719 95.6961C131.781 95.4607 131.987 94.9863 132.164 94.6787C132.341 94.3711 132.468 93.855 132.451 93.5778C132.435 93.3006 132.475 93.0958 132.546 93.1478C132.74 93.2888 133.751 87.084 133.746 85.7853C133.743 85.1902 133.817 84.5739 133.906 84.4516C133.995 84.3293 133.975 84.143 133.853 84.0539C133.731 83.9648 133.733 83.7479 133.859 83.5747C133.985 83.4015 134.04 82.8333 133.988 82.3272C133.933 81.8034 133.904 80.6438 133.929 79.7104C133.966 78.333 133.234 73.2138 132.68 70.8914C131.805 67.2746 130.019 63.0249 128.316 60.5671C127.742 59.7277 127.157 58.8178 127.027 58.5674C126.527 57.5631 122.774 53.1439 121.15 51.6482C120.927 51.4395 120.022 50.5618 119.148 49.7064C117.034 47.6198 112.147 43.9652 109.598 42.5605C108.462 41.9357 107.538 41.5122 107.558 41.6354C107.577 41.7588 107.364 41.6659 107.104 41.445C105.309 39.9038 96.1247 37.6728 93.0201 38.0158C92.4082 38.0848 91.9392 38.0862 91.9763 38.0353C92.1619 37.7805 86.6055 38.2557 84.1404 38.7059C80.624 39.3571 77.2088 40.7686 76.7009 41.7868C76.6544 41.8934 76.4931 41.9007 76.3607 41.8041C76.2282 41.7076 76.1132 41.7798 76.0955 41.9541C76.0805 42.1459 75.9831 42.2154 75.8608 42.1263C75.7385 42.0372 75.2414 42.3769 74.7515 42.8779C74.2616 43.379 72.8702 44.5179 71.6496 45.4224C69.2556 47.1879 68.8205 47.6352 69.0212 48.109C69.1988 48.5504 70.2213 48.4531 70.3533 47.9721C70.4184 47.7544 70.5232 47.6747 70.613 47.787C70.6926 47.8918 72.098 47.7614 73.6805 47.4949C77.399 46.8661 79.7619 46.6847 82.4721 46.8187C85.0285 46.9498 89.1562 47.836 90.9982 48.6477C93.2007 49.6285 99.021 53.651 100.526 55.2467C101.273 56.0408 102.008 56.8099 102.171 56.9917C102.446 57.3006 103.012 58.1502 103.835 59.4829C104.051 59.828 104.335 60.2527 104.465 60.3947C105.021 61.0023 106.689 65.0721 107.007 66.5833C107.196 67.5011 107.572 68.6332 107.839 69.1238C108.105 69.6144 108.239 70.1169 108.142 70.2494C108.045 70.3818 108.097 70.482 108.231 70.4701C108.382 70.4554 108.567 70.8866 108.657 71.4048C108.801 72.3207 109.106 73.9783 110.268 80.2844C110.48 81.4061 110.631 82.6548 110.624 83.071C110.607 83.4798 110.643 84.2863 110.681 84.8128C110.718 85.3393 110.645 86.0817 110.524 86.3986C110.387 86.7359 110.376 87.0084 110.505 87.0243C110.742 87.0412 110.274 89.118 110.01 89.2225C109.95 89.241 109.953 89.4301 110.033 89.598C110.106 89.776 110.069 90.1699 109.949 90.4414C109.822 90.7231 109.493 91.5598 109.206 92.3177C108.919 93.0757 108.339 94.1504 107.898 94.734C107.464 95.3074 107.169 95.8411 107.243 95.9106C107.317 95.9802 107.195 96.2341 106.946 96.4897C106.697 96.7453 106.004 97.5039 105.363 98.1911C104.213 99.4275 102.127 101.027 99.4592 102.718C98.6792 103.211 97.8621 103.754 97.6451 103.924C97.4002 104.089 97.1137 104.161 97.0118 104.086C96.8895 103.997 96.7764 104.024 96.7328 104.148C96.6965 104.262 95.4259 105.021 93.9115 105.836C85.5132 110.34 83.7469 110.988 77.5653 111.85C72.2394 112.586 71.3162 112.569 65.7527 111.619C63.9631 111.314 63.0939 111.008 62.2482 110.392C60.7809 109.323 59.7254 109.037 59.3096 109.608C58.9161 110.148 59.0227 112.207 59.4608 112.526C59.6341 112.652 59.7275 112.845 59.6607 112.937C59.2254 113.555 62.5781 116.747 65.2111 118.229ZM61.9806 113.114C61.9594 113.036 62.1725 113.129 62.4272 113.315C62.682 113.5 63.049 113.596 63.2372 113.53C63.4226 113.447 63.6636 113.545 63.7922 113.732C63.9135 113.93 64.0914 114.028 64.199 113.966C64.3065 113.904 64.8747 113.959 65.4613 114.075C68.2861 114.651 69.453 114.784 71.5988 114.772C72.8975 114.766 73.9319 114.802 73.8948 114.853C73.8577 114.904 74.4194 114.861 75.1091 114.771C75.8165 114.678 77.6566 114.443 79.24 114.24C82.8221 113.777 83.7798 113.554 86.4688 112.518C89.449 111.383 100.818 105.456 102.693 104.061C103.527 103.452 104.394 102.882 104.592 102.824C104.939 102.734 105.256 102.449 107.279 100.507C108.77 99.0821 110.837 96.267 111.554 94.6835C111.881 93.9552 112.244 93.1584 112.378 92.8665C112.745 92.0419 113.263 90.1106 113.518 88.6269C113.785 86.9966 113.743 81.0383 113.456 80.1899C113.354 79.8811 113.304 79.5641 113.359 79.5104C113.501 79.3798 112.482 73.7552 112.084 72.4822C111.918 71.9398 111.891 71.4837 112.032 71.4616C112.173 71.4394 112.164 71.3236 112.011 71.2122C111.736 71.0117 110.484 67.1203 110.48 66.4622C110.48 66.2277 110.418 66.1831 110.315 66.3258C110.211 66.4684 110.149 66.4239 110.149 66.1894C110.158 65.0418 106.808 58.186 105.683 57.0542C105.276 56.6488 104.614 55.8232 104.215 55.2361C103.816 54.649 103.161 53.9847 102.75 53.7786C102.346 53.5622 102.048 53.3293 102.1 53.258C102.226 53.0848 99.1013 50.8861 96.235 49.1251C93.5872 47.4923 90.0514 46.0079 88.0041 45.6705C83.4619 44.9036 82.2764 44.8822 77.1684 45.5126C76.3981 45.6064 75.3181 45.7399 74.8045 45.8024L73.858 45.924L76.1406 44.3113C79.2747 42.0867 80.9318 41.3753 84.2479 40.8277C92.1706 39.5028 100.508 40.6485 106.696 43.9094C111.624 46.5018 118.398 51.9989 121.677 56.0414C122.113 56.5776 122.589 57.2519 122.711 57.5124C122.833 57.773 123.231 58.2971 123.566 58.6506C123.901 59.004 124.313 59.5531 124.448 59.8387C124.585 60.142 124.732 60.3266 124.776 60.2654C124.821 60.2043 125.501 61.2616 126.281 62.61C127.947 65.4618 129.099 68.3132 129.516 70.5669C129.581 70.9266 129.672 71.2734 129.713 71.3031C129.804 71.3699 130.697 75.5613 130.719 76.0452C130.721 76.2343 130.812 77.33 130.886 78.4915C131.103 81.4264 130.884 87.4438 130.581 87.2387C130.499 87.1793 130.478 87.2729 130.533 87.4537C130.589 87.6345 130.535 88.3287 130.406 88.9988C130.276 89.6688 130.082 90.7281 129.982 91.3574C129.882 91.9867 129.635 92.7114 129.449 92.9661C129.264 93.2209 129.066 93.6851 129.022 93.9807C128.811 95.2773 128.186 96.6477 126.699 99.011C125.832 100.392 125 101.642 124.846 101.81C124.692 101.979 123.955 102.862 123.228 103.752C119.062 108.828 106.806 115.778 97.0406 118.584C93.0093 119.749 87.5434 120.571 83.4036 120.643C76.4274 120.755 71.8912 119.508 65.4562 115.709C64.5307 115.159 63.7024 114.712 63.6319 114.723C63.453 114.733 62.024 113.333 61.9806 113.114Z" fill="white"/>
<path d="M46.911 96.5022C47.5722 96.1728 51.8705 90.7874 55.8919 85.247L59.1559 80.746L60.6302 81.2275C62.6086 81.8734 64.7663 82.1664 64.7258 81.7938C64.7056 81.6074 64.751 81.6093 64.837 81.8124C65.0868 82.3688 68.5698 82.7695 70.6993 82.4804C72.0157 82.3008 72.776 82.028 73.0656 81.6307C73.7338 80.7136 73.0576 80.1429 68.7475 77.9228C65.5955 76.2969 64.1568 75.467 62.6996 74.4053L61.2323 73.3361L61.7517 72.0454C62.0396 71.3504 62.581 70.2006 62.9478 69.5474C63.3145 68.8943 63.7575 67.9223 63.9248 67.4358C64.3318 66.2349 65.2921 64.1891 66.1267 62.7225C67.2148 60.801 68.068 58.3028 67.8432 57.7334C67.5325 56.961 66.6247 57.3291 64.6887 59.0228C63.799 59.7941 62.4401 60.9098 61.7036 61.4496C60.9597 61.9995 59.9626 62.8329 59.4977 63.3209C59.0227 63.8016 58.0866 64.6795 57.3789 65.2869C55.8612 66.599 55.9856 66.4712 55.5995 67.0011C55.1466 67.6227 54.6159 67.1735 54.3796 65.9563C54.2791 65.4306 53.8704 64.3216 53.491 63.5149C53.1043 62.7183 52.7833 61.9385 52.7816 61.8124C52.7745 61.4796 50.6625 56.8208 50.4485 56.6649C50.3568 56.5981 50.1199 56.0668 49.9406 55.4993C49.7613 54.9319 49.4513 54.394 49.2762 54.3132C49.101 54.2324 49.0057 54.0849 49.0874 53.9728C49.1616 53.8709 48.887 53.156 48.4807 52.4076C47.5756 50.781 46.9232 50.6488 46.6828 52.0492C46.6036 52.5218 46.5012 52.962 46.4594 53.0408C46.3341 53.277 46.4514 55.7493 46.7525 59.1041C46.9131 60.8747 47.0565 63.2255 47.0601 64.3981C47.0711 65.5604 47.1366 67.0121 47.1907 67.6443C47.3984 69.7143 47.4612 70.9768 47.3647 71.1093C47.3127 71.1806 43.7203 71.8077 39.4076 72.5028C35.0949 73.1979 31.4282 73.9269 31.2872 74.1205C31.1535 74.3039 31.1976 74.7572 31.3938 75.0874C31.6909 75.6002 32.7204 76.0071 37.2564 77.4247C40.2829 78.3664 43.8219 79.5255 45.1145 79.9993C46.4173 80.4807 47.8008 80.9583 48.2262 81.0811C48.7173 81.2205 48.9489 81.3737 48.8653 81.5312C48.6119 81.9861 48.5589 82.1659 48.1683 83.644C47.9525 84.4539 47.7494 85.6319 47.6857 86.3187C47.6221 87.0055 47.5206 87.5087 47.4391 87.4493C47.3678 87.3973 47.3018 87.5521 47.3025 87.7866C47.3134 88.0285 47.1282 88.8607 46.9023 89.6633C46.6735 90.4482 46.2669 92.2266 45.9885 93.6149C45.6114 95.524 45.5932 96.2127 45.9294 96.4577C46.1888 96.6155 46.6356 96.6447 46.911 96.5022Z" fill="white"/>
<path d="M27.8664 47.5581C28.1011 47.3859 28.8534 46.7173 29.5455 46.0672C30.2477 45.4246 30.8999 44.8078 31.0196 44.7078C31.129 44.6004 31.669 44.0734 32.2089 43.5465L33.1942 42.5797L34.5955 43.8035C35.3689 44.4762 36.3396 45.3707 36.7313 45.7965C37.3684 46.4635 37.5102 46.5044 37.7747 46.12C38.0986 45.654 37.4711 43.4965 36.7786 42.6487C36.5554 42.3769 36.2445 41.7759 36.1151 41.3541L35.8748 40.5706L37.3336 39.746C42.0902 37.0501 42.2275 36.9473 41.5811 36.3359C41.218 35.9778 40.5468 36.1283 37.8726 37.1437C35.5146 38.0463 34.5393 38.2716 34.3588 37.9841C34.2246 37.7615 34.198 37.4769 34.3019 37.3342C34.4059 37.1916 34.5589 36.0395 34.6342 34.7373C34.7489 32.9957 34.6484 32.2985 34.2687 32.0062C33.9296 31.7436 33.6599 31.7498 33.4743 32.0046C33.1031 32.514 31.9638 35.6618 31.6233 37.114L31.3637 38.2196L30.3655 38.0695C29.8298 37.9911 29.1895 37.8209 28.9912 37.7077C28.137 37.2101 25.0028 36.5019 24.8171 36.7566C24.3791 37.3578 24.8698 38.0117 26.5003 39.0282C29.1406 40.6712 29.9828 41.0353 30.4067 40.689C30.6062 40.5223 30.2664 41.1171 29.6408 42.0185C28.4046 43.8008 27.5059 45.3767 27.0674 46.4923C26.7589 47.3439 27.2625 48.0229 27.8664 47.5581Z" fill="white"/>
<path d="M60.7263 41.0822C61.1074 40.9231 61.7891 40.4371 62.2344 39.9972C62.6797 39.5573 63.9099 38.4257 64.9887 37.4802C66.0602 36.545 67.1288 35.5921 67.358 35.3847C67.6892 35.0801 68.21 35.1788 69.8436 35.8699C72.3676 36.9446 73.7187 37.2739 74.2511 36.9286C74.9736 36.4723 74.5656 35.5978 73.0012 34.2552C72.1871 33.5528 71.222 32.6936 70.8589 32.3355L70.207 31.6888L71.364 30.3792C71.9996 29.6567 72.6583 28.9667 72.8355 28.8306C73.0052 28.7047 73.7753 27.8619 74.5696 26.9431C76.0635 25.1925 76.2422 24.4335 75.26 23.9831C74.8412 23.7871 73.8368 24.4592 68.5237 28.4968C67.79 29.0542 67.1325 29.4642 67.0509 29.4048C66.9694 29.3454 66.9756 28.6947 67.0634 27.9319C67.2838 26.0023 67.508 21.0489 67.4236 20.0515C67.3373 19.0995 67.1632 18.9102 66.4531 18.9856C66.1435 19.0252 65.8921 19.2632 65.7861 19.6227C65.7023 19.9517 65.5834 20.2862 65.5193 20.3955C65.4553 20.5049 65.4088 20.6114 65.3968 20.6494C65.3847 20.6874 65.2844 20.9107 65.1692 21.1544C64.7745 21.9744 63.9704 24.5551 63.3817 26.8404C63.0635 28.0906 62.7345 29.0988 62.6538 29.1024C62.5732 29.1061 61.3868 29.0216 60.0438 28.9166C58.7007 28.8115 57.3809 28.739 57.1315 28.7601C56.8821 28.7812 56.5735 28.7123 56.4411 28.6158C56.0844 28.3559 54.6712 29.0109 54.5419 29.5095C54.3857 30.0665 55.8141 31.0605 57.4933 31.582C58.0632 31.7632 58.5172 31.9537 58.4726 32.0148C58.4281 32.0759 58.8794 32.2488 59.4919 32.4143C60.1045 32.5798 60.9004 32.879 61.2997 33.1232C61.9964 33.5372 61.9917 33.565 60.8732 36.3846C59.4769 39.9067 59.2592 40.762 59.6872 41.0739C59.8687 41.2529 60.3452 41.2413 60.7263 41.0822ZM60.6864 30.7107C60.694 30.5291 60.8192 30.4643 60.9516 30.5608C61.0841 30.6573 61.1117 30.8335 61.0226 30.9557C60.9261 31.0882 60.8186 31.1502 60.7574 31.1057C60.7065 31.0686 60.6714 30.9026 60.6864 30.7107Z" fill="white"/>
</svg>
