<svg width="116" height="155" viewBox="0 0 116 155" fill="none" xmlns="http://www.w3.org/2000/svg">
<path d="M113.605 1.11706C112.422 2.29417 109.373 4.75 104.103 8.73832C99.6874 12.0713 95.3097 15.485 93.8784 16.6715C91.8308 18.3881 85.2943 23.4995 84.7184 23.8591C84.3414 24.0924 84.0513 24.352 84.0807 24.4484C84.6273 26.5488 85.0701 28.6544 85.0129 28.8562C84.9237 29.2128 85.0944 30.9004 85.3223 31.7799C85.423 32.1973 85.4413 32.5607 85.3327 32.5937C85.188 32.6378 85.172 33.8418 85.2936 34.6746C85.3035 34.7506 85.2825 34.9415 85.2578 35.1203C85.2295 35.2871 85.1937 36.0359 85.2025 36.758C85.1992 37.4838 85.1357 38.2279 85.0591 38.4094C84.9788 38.5788 84.9814 38.9338 85.0511 39.163C85.2419 39.7902 84.197 41.5971 81.9751 44.4737C80.9177 45.8495 79.405 47.8515 78.6061 48.951C77.8157 50.0349 77.0813 50.9566 76.9848 50.986C76.8884 51.0153 76.3801 51.6839 75.8891 52.4526C75.3982 53.2213 74.7242 54.1247 74.421 54.4278C74.1178 54.7308 73.8294 55.0822 73.779 55.1765C73.6138 55.5431 70.3906 59.9366 68.8967 61.8273C68.0675 62.8703 67.3646 63.8088 67.3179 63.9153C67.2713 64.0217 66.8941 64.5581 66.4939 65.062C66.0937 65.5659 65.6432 66.1642 65.5304 66.3566C65.4176 66.5491 65.0908 66.9911 64.8312 67.3073C64.3408 67.9045 59.2854 74.7661 58.9156 75.3266C58.7992 75.507 57.6757 76.9688 56.42 78.6027C55.1522 80.2402 53.6935 82.1598 53.1396 82.895C51.8456 84.6195 48.1981 89.5243 47.404 90.596C44.7898 94.1322 44.2553 94.8878 43.9338 95.4337C43.7166 95.8028 43.4533 96.1069 43.3206 96.1473C43.2 96.184 42.6015 96.9458 41.9925 97.8031C40.2055 100.376 37.6175 103.825 35.6957 106.215C35.3532 106.649 34.9593 107.217 34.7793 107.535C34.4483 108.136 33.8777 108.903 32.654 110.382C32.2008 110.929 31.7298 111.546 31.5966 111.758C31.2845 112.248 29.4114 114.755 26.7788 118.231C25.6218 119.756 24.3592 121.497 23.9679 122.117C23.5766 122.737 22.3933 124.349 21.3694 125.662C20.3456 126.975 18.9844 128.825 18.3901 129.731L17.2855 131.384L16.6075 130.932C16.2515 130.671 15.7381 130.326 15.4948 130.176C15.2515 130.026 13.8709 128.997 12.472 127.907C9.39566 125.548 8.74124 125.259 7.94928 125.948C7.08756 126.711 7.13736 126.788 10.9697 130.116C11.8275 130.857 12.828 131.633 13.1704 131.806C14.0912 132.277 14.1142 132.612 13.2531 132.901C10.7179 133.751 7.13746 135.973 5.76798 137.536C5.58283 137.751 5.09086 138.256 4.6613 138.664C3.86723 139.432 3.27137 140.246 2.40638 141.735C2.13047 142.214 1.85772 142.574 1.81158 142.509C1.76544 142.444 1.47324 143.086 1.14692 143.963C0.543582 145.662 0.481827 148.145 1.00754 149.83C1.63965 151.865 3.99079 153.746 6.34584 154.123C8.72869 154.505 11.8984 153.185 13.967 150.975C15.059 149.799 17.8964 144.614 17.735 144.083C17.6799 143.902 17.83 143.052 18.085 142.158C18.34 141.263 18.5316 140.507 18.5059 140.422C18.4959 140.346 18.5385 139.793 18.6136 139.217C18.6887 138.64 18.8094 137.694 18.8761 137.134L19.0027 136.12L21.7681 138.02C26.1281 141.003 27.0452 141.462 27.6106 140.895C28.123 140.37 27.9344 139.36 27.1731 138.59C26.6797 138.094 21.0136 133.98 20.1725 133.511C19.4573 133.109 19.5276 132.864 20.8247 131.322C21.5123 130.507 23.024 128.545 24.1701 126.984C25.3282 125.419 27.569 122.432 29.1562 120.328C30.7554 118.221 32.2042 116.225 32.4009 115.875C32.5976 115.526 33.2957 114.615 33.9256 113.87C34.5676 113.121 35.1383 112.354 35.175 112.172C35.2391 111.862 35.5816 111.429 37.4006 109.307C37.7504 108.898 41.1456 104.333 43.3271 101.324C44.0143 100.377 45.0523 98.9809 45.6555 98.1913C46.2503 97.4173 47.6896 95.4773 48.8393 93.9283C49.9854 92.3674 51.2133 90.7288 51.5474 90.3109C51.8778 89.8809 53.1251 88.2628 54.3195 86.6872C55.5138 85.1115 56.8356 83.3917 57.2646 82.8526C57.6937 82.3136 58.4264 81.3001 58.8838 80.5943C60.5251 78.1052 61.0176 77.4282 61.9817 76.2653C62.513 75.6292 63.2306 74.7389 63.5741 74.2654C63.9177 73.7919 65.2201 72.0516 66.4936 70.3465C67.7671 68.6413 68.9373 67.073 69.1115 66.8224C69.2893 66.5838 69.5788 66.1926 69.764 65.9782C70.8062 64.7255 71.4057 63.9238 72.054 62.9359C72.4611 62.3245 73.0989 61.4321 73.4907 60.9439C74.5219 59.6551 78.931 53.7017 79.4592 52.8821C79.7042 52.5177 80.2785 51.7632 80.7354 51.2289C81.1922 50.6946 81.6884 50.0297 81.8468 49.7707C81.9932 49.5153 82.3619 48.9946 82.6467 48.6313C82.9315 48.2679 83.6454 47.3655 84.2355 46.6194C84.8256 45.8732 85.5583 44.8597 85.8751 44.3416C87.079 42.4073 87.8012 41.7922 89.3225 41.4217C91.4785 40.8846 93.7124 40.8639 96.2914 41.3709C99.8588 42.0517 99.8588 42.0517 101.953 36.3281C102.928 33.6858 104.184 30.2333 104.755 28.689C105.331 27.1169 105.961 25.3309 106.17 24.6743C106.379 24.0178 106.726 23.0818 106.955 22.5774C107.172 22.0766 107.786 20.5853 108.298 19.3226C108.806 18.0478 109.275 16.9036 109.337 16.8056C109.388 16.7112 109.623 16.0993 109.855 15.4753C110.087 14.8513 110.471 13.9042 110.695 13.4276C110.927 12.9352 111.278 12.1827 111.47 11.7292C111.661 11.2756 112.427 9.46124 113.196 7.69883C115.414 2.55685 116.008 0.913452 115.772 0.484449C115.457 -0.118144 114.576 0.149685 113.605 1.11706ZM111.247 5.66906C110.764 6.46189 109.889 7.70302 109.304 8.42137C108.71 9.15544 108.069 10.0358 107.848 10.3929C107.242 11.4338 106.084 12.8668 105.914 12.7865C105.82 12.7362 105.632 12.464 105.511 12.1975C105.39 11.9311 105.168 11.5902 105.036 11.4591C104.294 10.7096 104.572 10.1506 106.425 8.70408C107.468 7.88618 108.637 6.96393 109.028 6.64725C109.407 6.33424 110.067 5.81728 110.454 5.52839C110.84 5.23951 111.261 4.84784 111.357 4.68687C111.465 4.52222 111.673 4.34028 111.834 4.30465C111.994 4.26901 111.731 4.87624 111.247 5.66906ZM103.985 13.6368L104.439 15.0407L103.133 16.7689C102.418 17.7112 101.754 18.5192 101.67 18.5449C101.585 18.5706 101.444 18.1919 101.357 17.6911C101.264 17.1661 100.792 16.3081 100.223 15.651C99.6927 15.0347 99.3063 14.4143 99.3651 14.3041C99.4359 14.1904 100.259 13.5182 101.215 12.8057C103.185 11.3104 103.241 11.3198 103.985 13.6368ZM110.341 10.3991C110.239 10.6277 110.004 11.1998 109.813 11.6534C108.99 13.6696 108.584 14.3728 108.222 14.4828C107.33 14.7543 107.483 14.0883 108.746 12.1755C110.021 10.259 110.769 9.42532 110.341 10.3991ZM98.5986 16.29C98.9069 16.6969 99.3881 17.8025 99.667 18.7192L100.177 20.3958L99.001 22.0318C96.9312 24.8884 97.066 24.7683 97.1139 23.7127C97.1592 22.6052 95.7956 19.7254 94.8398 18.9224C94.5005 18.6303 94.252 18.3764 94.2892 18.3255C94.4634 18.0749 97.4686 15.7376 97.7219 15.6605C97.8955 15.5814 98.2903 15.883 98.5986 16.29ZM93.3639 19.8325C93.9275 20.689 95.2779 23.6122 95.6448 24.8184C96.0275 26.033 95.9892 26.1237 94.735 27.8494L93.4316 29.6295L93.0117 28.4658C92.2527 26.4037 91.1014 24.395 90.0722 23.3508C89.1594 22.4292 89.1106 22.3123 89.4767 22.0428C89.6886 21.8729 90.4506 21.259 91.1681 20.6718C92.7295 19.393 92.9996 19.2845 93.3639 19.8325ZM107.282 16.2447C107.586 16.6795 107.163 18.6265 106.741 18.7549C106.657 18.7806 106.427 19.3249 106.235 19.95C105.903 21.026 105.257 21.6311 105.074 21.028C105.026 20.8712 104.546 20.6351 104.003 20.4971L103.02 20.2557L104.504 18.1573C106.09 15.922 106.744 15.4727 107.282 16.2447ZM89.169 24.627C89.9989 25.666 90.4529 26.5953 91.0934 28.6144L91.9294 31.2329L91.0409 32.2543C90.5432 32.8274 89.6011 34.0628 88.9213 35.0339C87.2014 37.481 87.128 37.5429 87.2147 36.5282C87.4722 33.129 87.1874 30.3297 86.2518 27.2539L85.5364 24.9018L86.6409 24.1573C87.2419 23.7504 87.8141 23.3787 87.919 23.3337C88.0118 23.2922 88.5865 23.8818 89.169 24.627ZM102.835 22.1173C103.38 22.1756 104.104 22.3902 104.462 22.6111C105.093 22.9987 105.088 23.0663 104.006 25.7936C103.404 27.3211 102.83 28.642 102.741 28.6955C102.652 28.7489 102.164 28.4888 101.636 28.0959C101.124 27.7114 100.157 27.307 99.5062 27.202L98.3184 27.023L100.023 24.5674C100.956 23.2162 101.747 22.0925 101.788 22.0537C101.821 22.0306 102.291 22.059 102.835 22.1173ZM98.4597 28.9171C99.1907 29.0242 100.321 29.4051 100.97 29.7613L102.141 30.4065L101.23 32.9109L100.318 35.4154L99.4955 34.8352C99.0572 34.5205 98.4337 34.1172 98.1312 33.9456C97.2707 33.4562 94.7111 32.9697 94.5359 33.2602C94.4483 33.4054 94.3901 33.3441 94.3881 33.1207C94.3965 32.8018 96.757 28.9079 97.0522 28.7522C97.1005 28.7376 97.7287 28.81 98.4597 28.9171ZM96.468 35.453C96.693 35.5427 96.8608 35.5312 96.8314 35.4347C96.7984 35.3262 96.9893 35.3472 97.2567 35.4899C97.5205 35.6205 98.2027 35.9137 98.7433 36.1315L99.7459 36.5249L99.4961 37.5233C99.3581 38.0661 99.1173 38.8773 98.9547 39.2958L98.675 40.0661L96.6069 39.5487C95.3787 39.237 93.6078 39.0904 92.1421 39.1672L89.7178 39.2985L90.9116 37.5912C91.5746 36.6516 92.332 35.7623 92.6115 35.5982C93.2057 35.2989 95.8052 35.1802 96.468 35.453ZM16.5528 134.954C16.5181 139.129 15.3882 144.296 13.868 147.183C12.9689 148.906 10.9187 150.874 9.31282 151.573C6.02876 152.994 2.82081 150.636 3.03378 146.96C3.09952 145.833 4.3743 142.876 5.48892 141.298C6.52906 139.822 10.1007 136.877 11.7475 136.139C12.2116 135.932 13.0119 135.531 13.4976 135.264C13.9953 134.994 14.8732 134.675 15.4826 134.555C16.4418 134.329 16.5603 134.372 16.5528 134.954Z" fill="white"/>
</svg>
