<svg width="22" height="23" viewBox="0 0 22 23" fill="none" xmlns="http://www.w3.org/2000/svg">
<path d="M10.9463 1.07103C10.8832 1.17189 10.7824 1.8527 10.7193 2.58394C10.5932 4.05903 10.1268 7.37483 9.82418 8.91296C9.67289 9.73245 9.53421 9.972 9.09294 10.1989C8.14737 10.6906 6.23101 11.0563 3.68427 11.258C2.33526 11.3588 1.13754 11.4975 1.02407 11.5732C0.608018 11.8253 1.44012 12.0144 3.04129 12.0144C3.97425 12.0144 5.10893 12.1027 5.60063 12.2162C9.63507 13.1239 9.43334 13.023 9.74854 14.1703C10.0259 15.2042 10.5428 18.7973 10.7319 21.0415C10.8958 22.9957 11.2614 22.6048 11.4253 20.2976C11.564 18.2174 12.0557 14.9394 12.3709 13.9812C12.4718 13.6534 12.6735 13.2878 12.7996 13.1869C13.2408 12.8213 17.3635 12.0396 19.0529 12.0018C20.6037 11.964 21.3601 11.8001 21.108 11.5479C21.045 11.4849 20.112 11.3841 19.0151 11.3336C16.8844 11.2202 14.6403 10.8293 13.3543 10.3628C12.7239 10.1359 12.5474 9.94678 12.3709 9.36683C12.0053 8.13129 11.5892 5.3324 11.4632 3.3404C11.3497 1.44926 11.1732 0.705407 10.9463 1.07103Z" fill="white"/>
</svg>
