<svg width="73" height="74" viewBox="0 0 73 74" fill="none" xmlns="http://www.w3.org/2000/svg">
<path d="M35.8684 0.151271C35.8684 0.289955 35.6919 1.65158 35.4649 3.20231C35.238 4.75305 34.9858 6.64419 34.8724 7.41325C34.7715 8.18232 34.4563 10.4013 34.1663 12.3176C33.8764 14.2466 33.5738 17.0203 33.4729 18.4953C33.309 21.0421 32.5778 26.955 32.3382 27.6737C32.2626 27.9006 31.2666 27.4215 29.615 26.3625C28.1777 25.4421 25.1267 23.614 22.7943 22.2524C20.4619 20.9034 17.5621 19.2014 16.314 18.4575C13.1621 16.5916 12.5695 16.6546 14.385 18.6592C15.8349 20.2604 25.0384 31.4055 25.1393 31.6829C25.1897 31.8216 24.572 32.0107 23.7399 32.1116C22.9204 32.2124 21.5587 32.4141 20.7014 32.5528C19.8441 32.6915 17.0704 33.1328 14.5237 33.5236C2.78601 35.3517 -0.189388 35.9821 -0.000273441 36.5746C0.188841 37.1546 5.55968 37.9489 13.5277 38.5793C14.6246 38.6675 17.2091 38.9197 19.2894 39.134C21.3696 39.3483 23.6768 39.5627 24.4207 39.5879C25.1645 39.6131 25.8453 39.7518 25.921 39.8778C26.047 40.0796 20.4997 47.0768 15.4062 53.1158C11.8761 57.3142 12.7208 57.0116 23.6264 50.1783C26.7279 48.2367 31.9978 45.1478 32.2122 45.1478C32.3761 45.1478 32.4769 45.2361 32.4769 45.3748C32.4769 45.5008 32.666 47.0642 32.893 48.8292C33.1199 50.5943 33.3721 53.0654 33.4477 54.3009C33.6494 57.4024 33.8638 59.1927 34.4311 62.5715C34.5698 63.4289 34.7589 64.7905 34.8598 65.6226C35.5028 71.6112 36.1457 74.3218 36.524 72.6576C36.8265 71.3843 38.3395 60.1635 38.6294 57.0872C39.4994 47.9971 39.8902 45.1604 40.2558 45.1604C40.4197 45.1604 45.9545 48.4636 51.5648 51.9055C59.2681 56.6334 58.8646 56.4316 58.8646 55.6878C58.8646 55.4608 58.2973 54.6413 57.5787 53.8471C56.8726 53.0528 55.3723 51.2499 54.2377 49.8378C53.103 48.4258 50.8336 45.6269 49.1946 43.6223C46.4209 40.2309 46.257 39.9535 46.8496 39.8022C47.2026 39.7013 49.9637 39.4114 52.9643 39.1592C55.9649 38.9071 59.4446 38.5667 60.6801 38.428C61.9157 38.2767 63.7438 38.1002 64.7398 38.0119C68.0052 37.7472 71.5605 37.1672 72.2539 36.789C72.6952 36.5494 72.6069 36.436 71.6362 36.0325C71.0184 35.7804 69.8207 35.4652 68.9633 35.3391C68.106 35.213 66.2905 34.9231 64.9037 34.6709C61.9913 34.1666 55.1706 33.0823 50.4302 32.3763C48.6399 32.1116 47.1522 31.8594 47.1144 31.8216C47.0639 31.7838 49.5854 28.7075 52.7247 24.963C55.864 21.2186 58.5368 18.0036 58.6881 17.7893C59.1042 17.1968 58.6125 16.9194 57.9191 17.3607C56.9483 17.9784 52.7247 20.4117 50.7453 21.496C49.762 22.0381 48.5012 22.7567 48.0095 23.0845C47.5052 23.3997 46.2823 24.1688 45.3241 24.7739C44.3659 25.3665 42.9034 26.2994 42.1344 26.8038C41.3527 27.3081 40.571 27.7367 40.4071 27.7367C39.928 27.7367 39.1842 22.9206 38.7807 17.3607C38.4655 12.9984 36.5366 0.138663 36.1836 0.0125874C36.0323 -0.0378431 35.8684 0.025195 35.8684 0.151271Z" fill="white"/>
</svg>
