<svg width="54" height="54" viewBox="0 0 54 54" fill="none" xmlns="http://www.w3.org/2000/svg">
<path fill-rule="evenodd" clip-rule="evenodd" d="M27.0812 6.64575C21.6662 6.64575 20.9883 6.66835 18.8617 6.76538C16.739 6.8624 15.2889 7.20001 14.0209 7.69313C12.6917 8.19289 11.4862 8.97709 10.4893 9.99257C9.47547 10.9883 8.69078 12.193 8.18988 13.5228C7.69942 14.7908 7.36048 16.2423 7.26345 18.3649C7.16775 20.4903 7.14383 21.1668 7.14383 26.5831C7.14383 31.9994 7.16643 32.676 7.26345 34.8026C7.36048 36.9253 7.69809 38.3754 8.19121 39.6434C8.69097 40.9726 9.47517 42.1781 10.4906 43.175C11.4864 44.1888 12.6911 44.9735 14.0209 45.4744C15.2889 45.9662 16.739 46.3038 18.8617 46.4009C20.9883 46.4979 21.6662 46.5205 27.0812 46.5205C32.4962 46.5205 33.174 46.4979 35.3007 46.4009C37.4234 46.3038 38.8735 45.9662 40.1415 45.4731C41.4706 44.9733 42.6762 44.1891 43.6731 43.1737C44.6869 42.1779 45.4716 40.9732 45.9725 39.6434C46.4643 38.3754 46.8019 36.9253 46.8989 34.8026C46.996 32.676 47.0186 31.9981 47.0186 26.5831C47.0186 21.1681 46.996 20.4903 46.8989 18.3636C46.8019 16.2409 46.4643 14.7908 45.9712 13.5228C45.4706 12.1924 44.6859 10.9872 43.6717 9.99124C42.676 8.97739 41.4713 8.1927 40.1415 7.6918C38.8735 7.20134 37.422 6.8624 35.2994 6.76538C33.174 6.66968 32.4975 6.64575 27.0812 6.64575ZM27.0812 10.2385C32.4045 10.2385 33.0358 10.2584 35.1385 10.3541C37.0818 10.4432 38.1371 10.7661 38.8402 11.0413C39.7707 11.4015 40.4352 11.8348 41.133 12.5313C41.8309 13.2291 42.2628 13.8936 42.623 14.8241C42.8968 15.5272 43.2211 16.5825 43.3102 18.5258C43.4059 20.6285 43.4258 21.2598 43.4258 26.5831C43.4258 31.9064 43.4059 32.5377 43.3102 34.6405C43.2211 36.5837 42.8982 37.639 42.623 38.3422C42.3039 39.2082 41.7948 39.9916 41.133 40.635C40.4898 41.2969 39.7063 41.806 38.8402 42.125C38.1371 42.3988 37.0818 42.7231 35.1385 42.8121C33.0358 42.9078 32.4058 42.9278 27.0812 42.9278C21.7566 42.9278 21.1266 42.9078 19.0238 42.8121C17.0806 42.7231 16.0253 42.4001 15.3221 42.125C14.4561 41.8059 13.6727 41.2967 13.0293 40.635C12.3677 39.9916 11.8585 39.2081 11.5394 38.3422C11.2655 37.639 10.9412 36.5837 10.8522 34.6405C10.7565 32.5377 10.7365 31.9064 10.7365 26.5831C10.7365 21.2598 10.7565 20.6285 10.8522 18.5258C10.9412 16.5825 11.2642 15.5272 11.5394 14.8241C11.8996 13.8936 12.3329 13.2291 13.0293 12.5313C13.6726 11.8694 14.4561 11.3602 15.3221 11.0413C16.0253 10.7675 17.0806 10.4432 19.0238 10.3541C21.1266 10.2584 21.7579 10.2385 27.0812 10.2385Z" fill="white"/>
<path fill-rule="evenodd" clip-rule="evenodd" d="M27.0812 33.2356C26.2076 33.2356 25.3425 33.0636 24.5354 32.7293C23.7283 32.3949 22.995 31.9049 22.3772 31.2872C21.7595 30.6694 21.2695 29.9361 20.9352 29.129C20.6008 28.3219 20.4288 27.4568 20.4288 26.5832C20.4288 25.7096 20.6008 24.8445 20.9352 24.0374C21.2695 23.2303 21.7595 22.497 22.3772 21.8792C22.995 21.2615 23.7283 20.7715 24.5354 20.4372C25.3425 20.1028 26.2076 19.9308 27.0812 19.9308C28.8455 19.9308 30.5376 20.6317 31.7852 21.8792C33.0328 23.1268 33.7336 24.8189 33.7336 26.5832C33.7336 28.3475 33.0328 30.0396 31.7852 31.2872C30.5376 32.5348 28.8455 33.2356 27.0812 33.2356ZM27.0812 16.3354C24.3633 16.3354 21.7568 17.4151 19.8349 19.3369C17.9131 21.2587 16.8334 23.8653 16.8334 26.5832C16.8334 29.3011 17.9131 31.9077 19.8349 33.8295C21.7568 35.7513 24.3633 36.831 27.0812 36.831C29.7991 36.831 32.4057 35.7513 34.3275 33.8295C36.2493 31.9077 37.329 29.3011 37.329 26.5832C37.329 23.8653 36.2493 21.2587 34.3275 19.3369C32.4057 17.4151 29.7991 16.3354 27.0812 16.3354ZM40.3103 16.1493C40.3103 16.7918 40.0551 17.4079 39.6008 17.8622C39.1465 18.3165 38.5304 18.5717 37.8879 18.5717C37.2455 18.5717 36.6293 18.3165 36.175 17.8622C35.7207 17.4079 35.4655 16.7918 35.4655 16.1493C35.4655 15.5069 35.7207 14.8907 36.175 14.4364C36.6293 13.9821 37.2455 13.7269 37.8879 13.7269C38.5304 13.7269 39.1465 13.9821 39.6008 14.4364C40.0551 14.8907 40.3103 15.5069 40.3103 16.1493Z" fill="white"/>
</svg>
