<svg width="54" height="54" viewBox="0 0 54 54" fill="none" xmlns="http://www.w3.org/2000/svg">
<path d="M44.864 17.5451C44.891 17.9357 44.891 18.3263 44.891 18.7204C44.891 30.7314 35.7474 44.5836 19.0278 44.5836V44.5764C14.0888 44.5836 9.25241 43.1689 5.09457 40.5014C5.81275 40.5878 6.53452 40.631 7.25809 40.6328C11.3511 40.6364 15.3272 39.263 18.5472 36.7341C14.6576 36.6603 11.2467 34.1242 10.0552 30.4218C11.4177 30.6846 12.8217 30.6306 14.159 30.2652C9.91838 29.4084 6.8675 25.6826 6.8675 21.3555C6.8675 21.3159 6.8675 21.2781 6.8675 21.2403C8.13105 21.9441 9.5458 22.3347 10.9929 22.3779C6.9989 19.7086 5.76775 14.3952 8.17965 10.241C12.7947 15.9197 19.6038 19.372 26.9133 19.7374C26.1807 16.5803 27.1815 13.2721 29.543 11.0527C33.2041 7.61127 38.962 7.78767 42.4035 11.4469C44.4392 11.0455 46.3903 10.2986 48.1759 9.24021C47.4973 11.3443 46.0771 13.1317 44.18 14.2674C45.9818 14.055 47.7421 13.5726 49.3998 12.8365C48.1795 14.6652 46.6423 16.2581 44.864 17.5451Z" fill="white"/>
</svg>
