<svg width="1440" height="1127" viewBox="0 0 1440 1127" fill="none" xmlns="http://www.w3.org/2000/svg">
<path d="M171.5 21.0633C126.3 41.8633 41.3333 60.73 4.5 67.5633H-10C-10 401.897 -8.2 1072.96 -1 1082.56C6.2 1092.16 30.3333 1095.56 41.5 1096.06C204.5 1136.56 254 999.563 387 989.063C520 978.563 541 1107.06 687 1082.56C833 1058.06 832 1001.06 986 1082.56C1140 1164.06 1250 1116.06 1337.5 1067.56C1407.5 1028.76 1441.67 1021.4 1450 1022.56V63.5633C1338.5 28.5633 1045 101.063 901 124.063C757 147.063 611.5 126.563 498.5 55.0633C385.5 -16.4367 228 -4.9367 171.5 21.0633Z" fill="#29A29D" stroke="#29A29D"/>
</svg>
